<?xml version="1.0" encoding="utf-8"?>
<!-- Generator: Adobe Illustrator 27.1.1, SVG Export Plug-In . SVG Version: 6.00 Build 0)  -->
<svg version="1.1" xmlns="http://www.w3.org/2000/svg" xmlns:xlink="http://www.w3.org/1999/xlink" x="0px" y="0px"
	 viewBox="-47 170.9 500 500" style="enable-background:new -47 170.9 500 500;" xml:space="preserve">
<g id="background">
	<path id="background_1_" style="fill:#FFC83B;" d="M453.1,238.5c0-37.3-30.2-67.6-67.6-67.6H20.6c-37.3,0-67.7,30.2-67.7,67.6
		v364.8c0,37.3,30.2,67.6,67.6,67.6h364.8c37.3,0,67.6-30.2,67.6-67.6V238.5H453.1z"/>
</g>
<g id="guides">
</g>
<g id="icon-mask" style="display:none;">
	<path id="trim_1_" style="fill:#FFFFFF;" d="M159,443.5l-1.6,34.6l-16.6,7.7c-8.5-2.4-20.3,1.2-35.4,10.7L65,522
		c-30.4,19.1-54.3,22.8-72,10.8c-9.4-6.4-14.9-15.2-16.7-26.6c-1.7-11.4,0.8-22.1,7.5-32c9.6-14.2,22.9-23.5,39.8-27.8
		c16.8-4.1,31.6-1.9,44.4,6.7c0.9,0.6,4,3,9.1,7.2l3.9,2.9c2.4,2,4.2,3.4,5.5,4.2c8.3,5.6,20,3.9,35-5.2c2.7-1.5,5.5-3,8.2-4.3
		L159,443.5z M167.4,501.4l10.4-279.3c1.8-3.7,3.7-7,5.8-10c10.8-16,24.7-29.6,41.7-41l-20.2,290.7c-0.6,9.1-1.2,15.1-1.9,18.2
		l-1.2,4.8c-3,12.5,0.3,22,9.9,28.5l1.6,1.1l4.6,2.6l8.9,5.2c16.3,9.9,25.8,28.7,28.6,56.6c2.9,28-2.4,51.8-15.7,71.5
		c-6.8,10-14.8,16.4-24.2,19.4c-9.4,3-17.9,1.8-25.7-3.5c-10.1-6.8-14.7-24.4-13.7-52.6l3-78.3c0.6-17.1-2-27.7-8-31.8
		C170.4,502.9,169.2,502.3,167.4,501.4z M44.4,515.1l9.9-5.7c8.8-5.2,14.8-10.2,18-14.9c6.3-9.3,2.9-18.3-10-27.1
		c-9.5-6.4-21.1-8.1-34.9-4.9c-13.8,3.2-24.2,9.9-31.2,20.2c-4.2,6.1-5.6,12.9-4.3,20.3c1.3,7.4,4.9,13,10.8,17
		C12.4,526.7,26.3,525.1,44.4,515.1z M193.5,564.7l-2.2,56.5c-0.5,17.4,2,28,7.7,31.8c4.7,3.2,9.4,3.7,14.2,1.5
		c4.8-2.1,9.8-6.9,14.8-14.3c10.4-15.3,14.5-34.3,12.6-57.1c-2-22.8-9.2-38.4-21.5-46.8c-8.3-5.6-15-4.8-19.9,2.5
		C196.1,543.2,194.2,551.8,193.5,564.7z M195.8,455.8c3.8-5.7,3-10.4-2.4-14c-5.4-3.7-10.1-2.7-13.9,3c-3.8,5.6-2.9,10.2,2.5,13.9
		C187.4,462.3,192,461.3,195.8,455.8z M216.6,452.4l2.1-37.6l212.8-104c-3.9,18.2-10.2,33.7-19,46.7c-3.5,5.2-7.8,10.5-12.8,15.9
		L216.6,452.4z"/>
	<g id="video_2_">
		<path id="film_1_" style="display:inline;fill:#FFFFFF;" d="M449.3,613.5h-18.2c-6.2,0-11.2-5.2-11.2-11.6v-15.4
			c0-6.4,5-11.6,11.2-11.6h18.2c2.1,0,3.7-1.7,3.7-3.9v-4.3c0-2.1-1.7-3.9-3.7-3.9h-16.2V278.3h16.2c2.1,0,3.7-1.7,3.7-3.9v-4.3
			c0-2.1-1.7-3.9-3.7-3.9h-18.2c-6.2,0-11.2-5.2-11.2-11.6v-15.4c0-6.4,5-11.6,11.2-11.6h18.2c2.1,0,3.7-1.7,3.7-3.9v-7.7
			c0-2.1-1.7-3.9-3.7-3.9H-43.3c-2.1,0-3.7,1.7-3.7,3.9v7.7c0,2.1,1.7,3.9,3.7,3.9h18.2c6.2,0,11.2,5.2,11.2,11.6v15.4
			c0,6.4-5,11.6-11.2,11.6H-44c-1.7,0-3,1.4-3,3.1v5.7c0,1.7,1.4,3.1,3,3.1h16.9v284.6h-16.2c-2.1,0-3.7,1.7-3.7,3.9v4.3
			c0,2.1,1.7,3.9,3.7,3.9h18.2c6.2,0,11.2,5.2,11.2,11.6v15.4c0,6.4-5,11.6-11.2,11.6h-18.2c-2.1,0-3.7,1.7-3.7,3.9v7.7
			c0,2.1,1.7,3.9,3.7,3.9h492.5c2.1,0,3.7-1.7,3.7-3.9v-7.7C453,615.2,451.3,613.5,449.3,613.5z M339.5,239.3
			c0-6.4,5-11.6,11.2-11.6h26.1c6.2,0,11.2,5.2,11.2,11.6v15.4c0,6.4-5,11.6-11.2,11.6h-26.1c-6.2,0-11.2-5.2-11.2-11.6V239.3z
			 M259.1,239.3c0-6.4,5-11.6,11.2-11.6h26.1c6.2,0,11.2,5.2,11.2,11.6v15.4c0,6.4-5,11.6-11.2,11.6h-26.1
			c-6.2,0-11.2-5.2-11.2-11.6V239.3z M178.7,239.3c0-6.4,5-11.6,11.2-11.6h26.1c6.2,0,11.2,5.2,11.2,11.6v15.4
			c0,6.4-5,11.6-11.2,11.6h-26.1c-6.2,0-11.2-5.2-11.2-11.6V239.3z M98.4,239.3c0-6.4,5-11.6,11.2-11.6h26.1
			c6.2,0,11.2,5.2,11.2,11.6v15.4c0,6.4-5,11.6-11.2,11.6h-26.1c-6.2,0-11.2-5.2-11.2-11.6V239.3z M18,239.3c0-6.4,5-11.6,11.2-11.6
			h26.1c6.2,0,11.2,5.2,11.2,11.6v15.4c0,6.4-5,11.6-11.2,11.6H29.2c-6.2,0-11.2-5.2-11.2-11.6V239.3z M66.5,601.9
			c0,6.4-5,11.6-11.2,11.6H29.2c-6.2,0-11.2-5.2-11.2-11.6v-15.4c0-6.4,5-11.6,11.2-11.6h26.1c6.2,0,11.2,5.2,11.2,11.6V601.9z
			 M146.9,601.9c0,6.4-5,11.6-11.2,11.6h-26.1c-6.2,0-11.2-5.2-11.2-11.6v-15.4c0-6.4,5-11.6,11.2-11.6h26.1
			c6.2,0,11.2,5.2,11.2,11.6V601.9z M227.3,601.9c0,6.4-5,11.6-11.2,11.6h-26.1c-6.2,0-11.2-5.2-11.2-11.6v-15.4
			c0-6.4,5-11.6,11.2-11.6h26.1c6.2,0,11.2,5.2,11.2,11.6V601.9z M307.6,601.9c0,6.4-5,11.6-11.2,11.6h-26.1
			c-6.2,0-11.2-5.2-11.2-11.6v-15.4c0-6.4,5-11.6,11.2-11.6h26.1c6.2,0,11.2,5.2,11.2,11.6V601.9z M388,601.9
			c0,6.4-5,11.6-11.2,11.6h-26.1c-6.2,0-11.2-5.2-11.2-11.6v-15.4c0-6.4,5-11.6,11.2-11.6h26.1c6.2,0,11.2,5.2,11.2,11.6V601.9z
			 M409.5,562.9H-3.5V278.3h412.9V562.9z"/>
		<polygon id="play_1_" style="display:inline;fill:#FFFFFF;" points="98.8,510.9 98.8,330.3 307.2,420.4 		"/>
	</g>
	<g id="wrap_1_">
		<path id="face_1_" style="display:inline;fill:#FFFFFF;" d="M356.7,434.2c1.7-8.6,3.1-17.3,4-26.1c0.8-7.6,1.5-15.2,2-22.9
			c2.2-1.5,4.3-3,6.3-4.8c1.9-1.8,3.2-3.8,4-6.2c0.7-3.2,1-7.2,1-11.3c-0.6-42-2.9-91.4-26.4-127.6c-15.5-24-38.3-42.9-65.8-51.6
			c-22.3-6.9-49.2-12.7-73-13c-39.7-0.6-95.7,8-123.7,33.3c-24.6,22.3-38.2,54.1-44.5,86.1c-2.8,13.8-9,44-7,67.3
			c-8.7,0.9-17.6,3.8-25.1,6.5c-11.1,3.8-27.1,7.4-35.1,16.7c-3.7,4.3-5,10.3-2.2,14.9c5.9,9.4,20.3,10,31.4,11.1
			c15.3,1.6,30.7,3.2,46.2,4.9c0.9,7.7,2.1,15.3,3.6,22.8c-19.5-6.8-23.3,13.8-20.2,27c4.2,17.4,18.3,33.4,38.4,43.6
			c1.9,7,3.7,14.1,5.4,21.3c5.5,23.4,10.2,48.6,21.1,70.8c6,12.2,13.9,22.3,23,32.3c9,9.9,16.2,21.5,27,29.8
			c16.8,13.1,37.3,11.6,57.5,11.8c20.2-0.1,40.7,1.3,57.5-11.8c10.8-8.3,18-19.9,27-29.8c9.1-10,17-20,23-32.3
			c10.9-22.1,15.6-47.3,21.1-70.8c1.6-7.1,3.5-14.2,5.3-21.2c4-2,7.8-4.2,11.2-6.7c0.1,0,0.1,0,0.2,0c3,0,5.5-2.1,6.2-5
			c10.7-9.1,18.1-20.3,20.9-32C380.2,447.9,376.3,427.3,356.7,434.2z M336,472.1c-0.9,1.2-2.5,1.8-5.2,2.1
			c-1.2,15.3-9,34.5-23.4,43.6c-6.3,4-13.3,6-20.6,6c-8.3,0-16.8-2.5-25.4-7.4c-7.5-4.3-14.6-10-20.6-17
			c-6.9-7.7-18.6-23.1-20.9-38.9c-0.1-0.3-0.1-0.4-0.1-0.7c-1.9-2.1-3.8-3.5-5.9-4.7c-1.3-0.7-2.7-1.2-4.1-1.6
			c-0.1,0-0.4-0.1-0.6-0.1c-0.4-0.1-0.7-0.3-1.2-0.3c-0.6-0.1-1-0.3-1.6-0.3c-0.1,0-0.4,0-0.7,0c-0.4,0-0.9,0-1.3,0
			c-0.4,0-0.9,0-1.3,0c-0.3,0.1-0.6,0.1-0.9,0.1c-0.4,0-1,0-1.5,0.1c-0.3,0.1-0.7,0.1-1.2,0.3l-0.4,0.1c-1.5,0.4-2.8,0.9-4.1,1.6
			c-2.1,1.2-4.1,2.8-5.9,4.7c-0.1,0.3-0.1,0.4-0.1,0.7c-2.4,15.8-14.2,31.1-20.9,38.9c-6,6.9-13.1,12.7-20.6,17
			c-8.6,4.9-17.1,7.4-25.4,7.4c-7.4,0-14.3-2.1-20.6-6c-14.4-9-22.1-28.3-23.4-43.6c-2.7-0.3-4.3-0.9-5.2-2.1
			c-0.3-0.6-0.7-1.6-0.3-3.1c0.9-2.9,3.4-3.7,5.6-3.8c0.3-1.6,0.4-3.2,0.9-4.7c3.7-14.9,15.6-27.6,30.4-32.3
			c9.9-3.1,20.5-3.5,28.6-3.5c3.5,0,7.1,0,10.3,0.1c6.2,0.1,12.8,0.6,19,2.5c2.4-1,5.2-1.3,7.7-1.6c6.3-0.7,13-1.2,19.9-1.5
			c2.8-0.1,5.6-0.1,8.8-0.1h1h0.9c3.2,0,6,0,8.8,0.1c7.1,0.3,13.6,0.7,19.9,1.5c2.5,0.1,5.3,0.6,7.7,1.6c6.2-1.8,12.8-2.4,19-2.5
			c3.4,0,6.9-0.1,10.3-0.1c8.1,0,18.7,0.3,28.6,3.5c14.9,4.7,26.7,17.4,30.4,32.3c0.4,1.5,0.7,3.1,0.9,4.7c2.2,0.1,4.7,0.9,5.6,3.8
			C337.1,470.5,336.6,471.5,336,472.1z"/>
		<path id="glasses_1_" style="display:inline;fill:#FFFFFF;" d="M230.8,430.5c-6.9-0.3-13.9-0.4-19-0.4c-1.5,0-2.8,0-4.3,0h-3.1
			h-3.1c-1.5,0-2.8,0-4.3,0c-5.3,0-12.1,0.1-19,0.4h-0.9c-0.7,0.1-1.5,0.1-2.2,0.1c1.6,0.9,3.1,1.9,4.6,3.2
			c5.6,4.9,8.7,10.9,9.6,17.8c0.7-0.7,1.6-1.2,2.5-1.8c0.3-0.4,0.7-0.7,1.2-1c3.4-1.5,7.1-2.4,10.9-2.4c0.3,0,0.6,0,0.9,0
			c0.1,0,0.4,0,0.7,0c3.8,0,7.5,0.7,10.9,2.4c0.6,0.1,0.9,0.6,1.2,1c0.9,0.6,1.6,1.2,2.5,1.8c0.9-6.9,4.1-13,9.4-17.8
			c1.5-1.3,2.9-2.4,4.6-3.2c-0.7-0.1-1.5-0.1-2.2-0.1H230.8z"/>
	</g>
	<path id="yello_2_" style="fill:#FFFFFF;" d="M211.9,388.1c-3.5-14.3-9.9-25.6-19.3-33.8c-10.7-9.5-24.5-14.2-41.4-14.2
		c-13.3,0-25,2.8-35.4,8.6c-9.3,5.2-17.1,12.4-23.2,21.7l9.5-26.8H54.8l-17.3,69.6c-0.6,2-1.6,6.5-3.2,13.4
		c-1.4,5.9-2.5,10.2-3.2,13.1h-0.9c-1-4.4-3.3-13.3-7-26.5L2.1,343.6H-47L5.3,473.4c1.1,2.8,1.7,5.2,1.7,7.2c0,1.8-0.8,3.9-2.3,6.3
		c-2,3.5-4.7,6.9-8.1,10.2c-3.4,3.3-6.8,5.7-10.1,7.5c-6.5,3.7-13,6.2-19.1,7.5l9.2,37.2c6.6-0.7,13.3-2.4,19.9-5.2
		c8.2-3.4,15.9-8.2,22.7-14.3c8.4-7.5,16.2-17.7,23.3-30.6c8-14.5,16.8-35.2,26.6-62.2l11-31.2c-0.3,3.3-0.6,6.5-0.6,10
		c0,22.5,6.6,40.3,19.8,53c13.4,13,32,19.5,55.9,19.5c19.9,0,37-3,51.4-8.9l-5.7-30c-11.8,4.1-24.9,6.1-39.2,6.1
		c-10.9,0-20-2.3-27.3-6.6c-7.9-4.8-12.2-11.7-12.8-20.6l90.2,0.2v56.9h44.1V291.8h-44V388.1 M168.8,379.9
		c3.3,5.2,4.8,11.3,4.8,18.2h-52.3c0.8-7.2,3.2-13.4,7.2-18.7c5.2-6.6,11.9-10,20.4-10C157.8,369.3,164.4,372.9,168.8,379.9
		 M380.8,340.4c-19.7,0-36.1,5.1-49.4,15.3c-13.2,10.1-21.5,24-24.9,41.7V291.8h-44v193.6h44v-52.1c1,5.2,2.6,10,4.5,14.6
		c2.5,5.9,5.7,11.1,9.8,15.9c0.7,0.8,1.4,1.6,2,2.4c6.5,7.2,14.5,12.7,23.9,16.6c11.1,3.7,21.6,5.7,31.4,5.9h0.2
		c5.2,0,10.1-0.5,15-1.2c2.8-0.5,5.6-1.1,8.4-1.9c4.5-1.4,8.9-3,13.1-5.2c11.8-5.9,21.1-14.3,27.6-25.3l2.4-4.3
		c0.5-0.9,0.9-1.9,1.4-2.8c0.3-0.8,0.7-1.6,1-2.5c3.8-9.6,5.9-20.4,5.9-32.3c0-21.5-6.6-39.1-19.9-52.5
		C419.7,347.1,402.2,340.4,380.8,340.4 M379,372c9.3,0,16.6,4.5,21.6,13.4c4.4,7.7,6.5,17.3,6.5,29.1c0,13.1-2.6,23.4-7.7,31.1
		c0,0.1-0.1,0.1-0.1,0.2l-0.2,0.3c-0.5,0.7-0.9,1.2-1.4,1.9c-1.1,1.4-2.3,2.6-3.5,3.6l-0.1,0.1c-1.5,1.2-2.9,2.1-4.5,3
		c-3.2,1.6-6.5,2.4-10.2,2.4h-0.8c-7.9,0-14.2-3-19.1-9.1c-0.7-0.8-1.2-1.6-1.8-2.5c-0.1-0.2-0.2-0.5-0.5-0.7
		c-5-7.7-7.3-17.8-7.3-30.2c0-11.8,2.3-21.6,6.6-29.3C361.8,376.5,369.2,372,379,372z"/>
	<path id="quick_1_" style="fill:#FFFFFF;" d="M341.9,365.2l-148.7,23.9l84.3-218.5L64.1,481.1l122.7-20.8L104,670.6L341.9,365.2z"
		/>
	<path id="browser_1_" style="fill:#FFFFFF;" d="M428,212.3H-22c-13.8,0-25,11.2-25,25V604c0,13.8,11.2,25,25,25h450
		c13.8,0,25-11.2,25-25V237.3C453,223.5,441.8,212.3,428,212.3z M61.3,245.6h50v50h-50V245.6z M-13.7,245.6h50v50h-50V245.6z
		 M419.7,595.6H-13.7V329h433.3V595.6z M419.7,295.6H136.3v-50h283.3V295.6z"/>
	<path id="seo_1_" style="fill:#FFFFFF;" d="M439.6,598.4L309.2,477.6c-4.9-4.6-10.7-7.7-16.7-9.4c22.4-30.9,35.6-68.9,35.6-109.9
		c0-103.6-83.9-187.6-187.5-187.6S-47,254.6-47,358.2s83.9,187.6,187.5,187.6c36.6,0,70.8-10.5,99.7-28.7c1.8,8,5.9,15.7,12.4,21.7
		L383,659.5c8,7.4,18.2,11.1,28.3,11.1c11.2,0,22.4-4.5,30.6-13.4C457.5,640.4,456.5,614,439.6,598.4z M-5.3,358.2
		c0-80.4,65.4-145.9,145.8-145.9s145.8,65.4,145.8,145.9s-65.4,145.9-145.8,145.9S-5.3,438.6-5.3,358.2z"/>
	<g id="image_1_">
		<path id="polaroid_1_" style="display:inline;fill:#FFFFFF;" d="M427.8,624.3l-26.3-433.1c-0.7-12-11.2-21.3-23.2-20.6l-379.6,23
			c-12,0.7-21.3,11.2-20.6,23.2L4.5,650c0.7,12,11.2,21.3,23.2,20.6l379.6-23C419.3,646.8,428.5,636.4,427.8,624.3z M40.3,575.8
			L19.4,232.7l343.1-20.8L383.3,555L40.3,575.8z"/>
		<polygon id="fields_1_" style="display:inline;fill:#FFFFFF;" points="60.9,452.3 146.8,376.1 236.5,439.6 282.3,403.9 351,452.2 
			355.8,531.1 66.7,548.6 60.9,452.3 		"/>
		<path id="sun_1_" style="display:inline;fill:#FFFFFF;" d="M276.1,262.9c25.1-1.5,46.6,17.6,48.1,42.6c1.5,25-17.6,46.6-42.6,48.1
			c-25.1,1.5-46.6-17.6-48.1-42.6C232,286,251.1,264.4,276.1,262.9L276.1,262.9z"/>
	</g>
	<g id="translate_1_">
		<path id="A_3_" style="display:inline;fill:#FFFFFF;" d="M175.3,479.7c-14.3-6.9-27-14.3-38.3-22.2
			c52.6-53.4,67.4-114.7,74.9-145.7c1-4,1.8-7.4,2.6-10.2h57.6v-37.9H132.4v-65.4H95v65.3H-42.6v38h218.4c-0.1,0.4-0.1,0.8-0.3,1.2
			c-7.2,30-20.2,84-67.6,130.4C67,393.2,51.8,347.5,43.7,316.4H4.9c7.8,32.2,23.6,90.2,73.7,141.1C48,479,7.4,497.2-47,507.8
			l7.2,37.2c64.7-12.7,112.4-35.2,147.7-62c15.8,12,34.2,23.1,55.4,32.9L175.3,479.7z"/>
		<path id="A_2_" style="display:inline;fill:#FFFFFF;" d="M244.7,559.4l-24.3,83.4h-77.1l103.3-312.5h98.1L453,642.8h-80.8
			l-27.5-83.4H244.7z M332.7,505.2l-22.5-66.8c-6-18-12-39-17-56.6h-1c-5,17.6-9.7,38.6-15.1,56.6l-21,66.8H332.7z"/>
	</g>
	<g id="identify_1_">
		<path id="tag_1_" style="display:inline;fill:#FFFFFF;" d="M425.6,289.3H254.5c-4.5,0-8.2,3.7-8.2,8.3c0,4.6,3.7,8.3,8.2,8.3h6.5
			c5.9,0,11.1,4.4,11.7,10.3c0.7,6.8-4.7,12.6-11.3,12.6H145c-5.9,0-11.1-4.4-11.7-10.3c-0.7-6.8,4.7-12.6,11.3-12.6h6.9
			c4.5,0,8.2-3.7,8.2-8.3c0-4.6-3.7-8.3-8.2-8.3H-19.6c-15.1,0-27.4,12.4-27.4,27.6v249.7c0,15.3,12.2,27.6,27.4,27.6h445.3
			c15.1,0,27.4-12.4,27.4-27.6V316.9C453,301.7,440.8,289.3,425.6,289.3z M83.9,355.7c25.2,0,45.7,20.6,45.7,46.1
			c0,25.5-20.5,46.1-45.7,46.1s-45.7-20.6-45.7-46.1C38.3,376.3,58.7,355.7,83.9,355.7z M176.3,540.2c0,9-7.3,16.3-16.2,16.3H7.7
			c-8.9,0-16.2-7.3-16.2-16.3v-15.8c0-51.3,41.6-63.7,92.4-63.7h0c50.8,0,92.4,12.4,92.4,63.7V540.2z M398.6,522.3H231.9v-23.1
			h166.6V522.3z M398.6,461.2H231.9v-23.1h166.6V461.2z M398.6,400.1H231.9V377h166.6V400.1z"/>
		<path id="id_1_" style="display:inline;fill:#FFFFFF;" d="M176,321.2H230c5.8,0,10.6-4.8,10.6-10.7V247h-75.3v63.5
			C165.4,316.4,170.1,321.2,176,321.2z"/>
	</g>
	<path id="focus_1_" style="fill:#FFFFFF;" d="M439.2,406.7h-28.4c-6.9-103.8-90.1-187-194-193.9v-28.4c0-7.6-6.1-13.8-13.7-13.8
		h-0.3c-7.6,0-13.8,6.1-13.8,13.8v28.4C85.3,219.7,2.1,302.9-4.8,406.7h-28.4c-7.6,0-13.8,6.2-13.8,13.8v0.3
		c0,7.6,6.1,13.7,13.8,13.7h28.4c6.9,103.8,90.1,187.1,193.9,194v28.4c0,7.6,6.2,13.8,13.8,13.8h0.3c7.6,0,13.7-6.2,13.7-13.8v-28.4
		c103.8-6.9,187.1-90.1,194-194h28.4c7.6,0,13.8-6.1,13.8-13.7v-0.3C453,412.9,446.8,406.7,439.2,406.7L439.2,406.7z M369,406.7
		h-24.4c-6.5-67.4-60.3-121.2-127.8-127.8v-24.4C297.7,261.3,362.3,325.9,369,406.7L369,406.7z M279.3,434.5h44.4
		c-6.4,55.9-50.9,100.4-106.8,106.8v-44.4c0-7.6-6.1-13.8-13.7-13.8h-0.3c-7.6,0-13.8,6.1-13.8,13.8v44.4
		c-55.9-6.4-100.4-50.9-106.8-106.8h44.4c7.6,0,13.8-6.1,13.8-13.7v-0.3c0-7.6-6.2-13.8-13.8-13.8H82.3
		c6.4-55.9,50.9-100.4,106.8-106.8v44.4c0,7.6,6.2,13.8,13.8,13.8h0.3c7.6,0,13.7-6.2,13.7-13.8v-44.4
		c55.9,6.4,100.4,50.9,106.8,106.8h-44.4c-7.6,0-13.8,6.2-13.8,13.8v0.3C265.5,428.4,271.6,434.5,279.3,434.5L279.3,434.5z
		 M189.1,254.6v24.4c-67.4,6.6-121.2,60.4-127.8,127.8H37C43.7,325.9,108.3,261.3,189.1,254.6L189.1,254.6z M37,434.5h24.4
		c6.6,67.4,60.4,121.2,127.8,127.8v24.4C108.3,580,43.7,515.3,37,434.5L37,434.5z M216.9,586.7v-24.4
		c67.4-6.5,121.2-60.3,127.8-127.8H369C362.3,515.3,297.7,580,216.9,586.7L216.9,586.7z M216.9,586.7"/>
	<g id="log_1_">
		<path id="less_1_" style="display:inline;fill:#FFFFFF;" d="M132.3,624.6L-23.3,469c-26.7-26.7-26.7-70.2,0-96.9l19.6-19.6
			l0.1,0.1l135.9-135.9l39.3,39.3L14.8,412.7c-3.9,5.1-3.5,12.4,1.2,17l155.6,155.6L132.3,624.6z"/>
		<path id="great_1_" style="display:inline;fill:#FFFFFF;" d="M273.4,625.5L233.9,586l157.5-157.5c2.3-3,2.6-6.1,2.6-7.9
			c0-2-0.5-5.9-3.8-9.2L234,255.2l39.4-39.4L429.7,372c13,13,20.2,30.3,20.2,48.7c0,18.4-7.2,35.7-20.2,48.7L410,489.1l-0.1-0.1
			L273.4,625.5z"/>
	</g>
	<path id="pallete_1_" style="fill:#FFFFFF;" d="M450.7,193.6c-1.9-1.9-4.8-2.7-7.4-2.1l-35.7,8c-2.4,0.6-14.6,3.8-20.5,9.8
		c-9.3,9.4-11.9,22.9-8.1,34.8c-2.2-0.5-4.7-0.1-6.6,1.4l-56.6,45.4c-1.8,1.4-2.8,3.5-3,5.8c0,0.2,0.1,0.3,0.1,0.5
		c-0.1,0-0.2-0.1-0.2-0.1c-2.2,0.1-4.2,1-5.7,2.6l-34.5,37.5c-12,4.8-22.6,11.6-31.7,20.7c-6.3,6.3-14.7,9.8-23.6,9.8
		c-8.9,0-17.3-3.5-23.6-9.8c-6.8-6.8-10.3-16.1-9.7-25.7c0-0.7,0-1.3-0.2-2v0c0.1-1.2,0.1-2.3,0.1-3.4c0-0.3,0-0.6,0-0.8
		c0-0.2,0-0.5-0.1-0.7c-0.9-23.9-10.6-46.2-27.4-63c-17.7-17.7-41.3-27.5-66.4-27.5c-19.6,0-38.3,5.9-54.3,17.2
		c-4.7,3.4-8.8,6.7-12.3,10.3c-1.3,1.3-2.5,2.6-3.7,4l-0.4,0.5c-0.2,0.2-0.4,0.4-0.7,0.6c-87.5,87.5-87.5,229.8,0,317.2
		c42.4,42.4,98.7,65.7,158.7,65.7c59.9,0,116.3-23.3,158.7-65.7c43.3-43.3,66.6-100.8,65.7-162c0-0.8-0.2-1.6-0.5-2.4
		c-1-23.6-10.7-45.7-27.4-62.3c-8.6-8.7-18.9-15.4-30.2-20.1l0.8-0.7c1.6-1.5,2.5-3.5,2.6-5.7c0-0.1,0-0.1,0-0.2c0,0,0,0,0,0
		c0.2,0,0.3,0,0.4,0c2.3-0.1,4.4-1.2,5.8-3l45.4-56.6c1.4-1.7,1.9-3.8,1.7-5.9c3.5,1.2,7.2,2,11,2c9.1,0,17.6-3.5,24-10
		c4.4-4.5,10.4-23.6,17.7-56.7C453.4,198.4,452.6,195.6,450.7,193.6z M190.3,450.1L283,349.3h0l30-32.6l14.3,14.3L194,453.7
		l-4.5,0.8L190.3,450.1z M16.3,466.8c-6.7-6.7-10.4-15.6-10.4-25c0-9.5,3.7-18.4,10.4-25.1c6.7-6.7,15.6-10.4,25-10.4
		c9.5,0,18.3,3.7,25,10.4c13.8,13.8,13.8,36.3,0,50.1c-6.7,6.7-15.6,10.4-25,10.4C31.9,477.2,23,473.5,16.3,466.8z M118.1,557.3
		c-6.7,6.7-15.6,10.4-25,10.4c-9.5,0-18.3-3.7-25-10.4c-6.7-6.7-10.4-15.6-10.4-25c0-9.4,3.7-18.3,10.4-25
		c6.7-6.7,15.6-10.3,25-10.3c9.4,0,18.3,3.7,25,10.3C131.9,521,131.9,543.5,118.1,557.3z M133.6,345.7c-5.9,5.9-14.1,9.2-23.1,9.2
		c-11.3,0-22.8-5-31.6-13.8c-16.4-16.4-18.5-41-4.7-54.8c5.9-5.9,14.1-9.2,23.1-9.2c11.3,0,22.8,5,31.6,13.8
		c7.7,7.7,12.6,17.5,13.6,27.5C143.7,329.1,140.5,338.8,133.6,345.7z M206,606.4c-6.7,6.7-15.6,10.4-25,10.4
		c-9.4,0-18.3-3.7-25-10.4c-6.7-6.7-10.4-15.6-10.4-25s3.7-18.3,10.4-25c6.7-6.7,15.6-10.4,25-10.4c9.5,0,18.3,3.7,25,10.4
		C219.8,570.1,219.8,592.6,206,606.4z M294.5,556.7c-6.7,6.7-15.6,10.4-25,10.4c-9.5,0-18.3-3.7-25-10.4c-6.7-6.7-10.4-15.5-10.4-25
		c0-9.5,3.7-18.4,10.4-25c6.7-6.7,15.6-10.4,25-10.4c9.5,0,18.4,3.7,25,10.4c6.7,6.7,10.4,15.5,10.4,25
		C304.9,541.1,301.2,550,294.5,556.7z M344.5,417.8c6.7,6.7,10.4,15.6,10.4,25c0,9.5-3.7,18.3-10.4,25c-6.7,6.7-15.6,10.4-25,10.4
		c-9.5,0-18.3-3.7-25-10.4c-6.7-6.7-10.4-15.6-10.4-25c0-9.5,3.7-18.4,10.4-25c6.7-6.7,15.6-10.4,25-10.4
		C328.9,407.4,337.8,411.1,344.5,417.8z M346.2,311.3l-13.5-13.5l44.1-35.3l4.7,4.7L346.2,311.3z M423.8,246.5
		c-6.8,6.9-18.5,6.9-25.3,0c-7-7.1-7-18.8,0-25.9c1.8-1.8,8.2-4.4,12.8-5.5l23.2-5.2C430.3,226.9,425.7,243.6,423.8,246.5z"/>
	<g id="pirate_1_">
		<path style="display:inline;fill:#FFFFFF;" d="M414.5,358.2c-16.5,0-30.2-7.9-41.8-24.2c-9.9-13.9-17.7-32.8-26-52.8
			c-16.9-41-36-87.1-79.7-109.8c-5.4,46.5-31.8,80.5-63.5,80.5c-16.7,0-32.4-9.5-44.4-26.7c-10.1-14.5-16.7-33.6-19.1-54.3
			c-44.5,22.5-63.7,69-80.8,110.3c-8.3,20-16.1,38.9-26,52.8C21.6,350.3,8,358.2-8.5,358.2c-1.9,0-3.9-0.1-5.9-0.3
			c-2.2,5.7-3,11-3.3,14.5c22.3,44,79.6,56.7,115.8,60.3c0-3.8,0-5.7,0-6.2c0-0.1,0-0.2,0-0.3c0.1-6.4,2-12.4,5.6-17.9
			c5.4-8.1,14.5-15.2,27-20.7c18.8-8.3,44.7-12.8,72.9-12.8c28.2,0,54.1,4.6,72.9,12.8c12.4,5.5,21.5,12.5,26.9,20.7
			c3.5,5.3,5.4,11,5.6,17.1c0,0.4,0,0.8,0,1.2c0,0.3,0,0.6,0,0.9l0,0.1v5.1c16.9-1.7,39.5-5.6,60.5-14.2
			c25.9-10.6,44.1-26.1,54.2-46c-0.4-4.4-1.6-11-2.8-14.6C418.7,358.1,416.6,358.2,414.5,358.2z"/>
		<path style="display:inline;fill:#FFFFFF;" d="M203.6,380.4c-54.9,0-99.5,17.5-99.8,45.8v12.7v31.4c0,5.8,4.7,10.6,10.6,10.6h20.5
			c8.5,0,15.4,7.2,15.4,16.2v13c0,5.8,4.7,10.6,10.6,10.6h42.8h42.8c5.8,0,10.6-4.7,10.6-10.6v-13c0-8.9,6.9-16.2,15.4-16.2h20.5
			c5.8,0,10.6-4.7,10.6-10.6v-31.5v-11.4v-2C302.2,397.5,258,380.4,203.6,380.4z M159.6,463.6c-17.3-1.2-29.2-17.6-27.9-34.9
			c0.6-8.6,16.9-9.8,32.5-8.7c15.6,1.1,30.3,8,29.7,16.6C192.6,453.9,176.8,464.8,159.6,463.6z M217.5,487.1c-0.6,0.5-1.3,0.8-2,0.8
			c-0.4,0-0.8-0.1-1.2-0.2l-10.8-4.7l-10.8,4.7c-0.4,0.2-0.8,0.2-1.2,0.2c-0.7,0-1.5-0.3-2-0.8c-0.8-0.8-1.1-2-0.7-3.1l12-31.2
			c0.4-1.1,1.5-1.9,2.7-1.9c1.2,0,2.3,0.7,2.7,1.9l12,31.2C218.6,485.1,218.4,486.3,217.5,487.1z M247.5,463.6
			c-17.3,1.2-33.1-9.7-34.3-27c-0.6-8.6,14.1-15.5,29.7-16.6c15.6-1.1,31.9,0.1,32.5,8.7C276.7,446,264.8,462.4,247.5,463.6z"/>
		<path style="display:inline;fill:#FFFFFF;" d="M56.2,634.2l53.5-18.4c-0.1-0.6-0.3-1.2-0.5-1.8l-4.2-12.3l-57.8,19.9l1.8,5.2
			c0.9,2.5,2.2,4.7,3.9,6.6C53.7,634.3,55,634.6,56.2,634.2z"/>
		<path style="display:inline;fill:#FFFFFF;" d="M123.9,616.6l-8.5-24.6c-0.9-2.7-3.8-4.1-6.5-3.2l-0.1,0c-2.7,0.9-4.1,3.8-3.2,6.5
			l1.9,5.5l4.2,12.3c0.2,0.6,0.4,1.2,0.5,1.8c0.9,5.1-1.5,10.3-6.1,12.9c-6.3,3.6-13.6,6.6-21.3,9.3c-6.6,2.3-13.4,3.3-19.9,3.4
			c-4.9,0.1-9.6-1.7-13.1-4.8c-2.4-2.1-4.3-4.9-5.4-8.1l-1.8-5.2l-1-3.1c-0.9-2.7-3.8-4.1-6.5-3.2l-0.1,0c-2.7,0.9-4.1,3.8-3.2,6.5
			l5.5,15.9h0c7.8,22.7,33.5,37.4,56.3,29.5C117.9,660.5,130.8,638.9,123.9,616.6L123.9,616.6z"/>
		<path style="display:inline;fill:#FFFFFF;" d="M32,626.8c-2.5,0.9-3.7,3.9-2.7,6.8l1.2,3.5c1,2.9,3.8,4.6,6.3,3.7l0,0L32,626.8
			L32,626.8z"/>
		<path style="display:inline;fill:#FFFFFF;" d="M-3.4,442.6c-15.3,98.7,258.3,169.1,277.7,176.2l10.8-30.1
			C266.3,581.3,82.4,519.5-3.4,442.6z"/>
		<path style="display:inline;fill:#FFFFFF;" d="M292.5,616.4l53.5,18.4c1.2,0.4,2.5,0.1,3.3-0.9c1.7-1.9,3-4.1,3.9-6.6l1.8-5.2
			l-57.8-19.9l-4.2,12.3C292.7,615.2,292.6,615.8,292.5,616.4z"/>
		<path style="display:inline;fill:#FFFFFF;" d="M365.2,616.8L365.2,616.8c-2.8-1-5.7,0.5-6.6,3.2l-1,3.1l-1.8,5.2
			c-1.1,3.2-3,5.9-5.4,8.1c-3.5,3.1-8.1,4.9-13.1,4.8c-6.6-0.1-13.3-1.1-19.9-3.4c-7.7-2.7-15-5.7-21.3-9.3c-4.6-2.6-7-7.8-6.1-12.9
			c0.1-0.6,0.3-1.2,0.5-1.8l4.2-12.3l1.9-5.5c0.9-2.7-0.5-5.6-3.2-6.5l-0.1,0c-2.7-0.9-5.6,0.5-6.5,3.2l-8.5,24.6l0,0
			c-6.9,22.3,6,43.9,28.4,51.6c22.8,7.8,48.4-6.8,56.3-29.5v0l5.5-15.9C369.3,620.7,367.9,617.8,365.2,616.8z"/>
		<path style="display:inline;fill:#FFFFFF;" d="M370.2,627.4L370.2,627.4l-4.9,14.1l0,0c2.5,0.9,5.3-0.8,6.3-3.7l1.2-3.5
			C373.9,631.4,372.7,628.3,370.2,627.4z"/>
		<path style="display:inline;fill:#FFFFFF;" d="M226.5,562.4c3.6,1.4,11,4.3,11,4.3c0,0,0.2,0.1,0.2,0.1c0,0,0,0,0,0
			c7.7,3,15.5,5.9,23.5,8.9c76.1-30.3,155.1-74.8,147.5-129c-50.7,44.2-134.7,82.8-199.7,108.7"/>
		<path style="display:inline;fill:#FFFFFF;" d="M145.6,579.2c-14,5-23.8,8.3-27.5,9.7l10.4,30.2c5.7-2,33.1-9.1,68.7-20.6
			C189.8,595.9,151.7,581.7,145.6,579.2z"/>
	</g>
	<defs>
		<filter id="Adobe_OpacityMaskFilter" filterUnits="userSpaceOnUse" x="-7.1" y="170.9" width="420.2" height="500">
			<feColorMatrix  type="matrix" values="1 0 0 0 0  0 1 0 0 0  0 0 1 0 0  0 0 0 1 0"/>
		</filter>
	</defs>
	<mask maskUnits="userSpaceOnUse" x="-7.1" y="170.9" width="420.2" height="500" id="mask-2_1_" style="display:inline;">
		<g style="filter:url(#Adobe_OpacityMaskFilter);">
			<path id="path-1_1_" style="fill:#FFFFFF;" d="M-7.1,802.2h2176.5V170.9H-7.1"/>
		</g>
	</mask>
	<path id="craft" style="mask:url(#mask-2_1_);fill:#FFFFFF;" d="M359.4,260.6c2.9,2.2,5.7,4.5,8.4,6.9l43.9-34.4l1.4-1.8
		c-6.7-6.8-13.9-13.2-21.8-19.1c-100.7-76-252.9-44.2-339.8,71.1c-87,115.2-75.9,270.3,24.8,346.3c82.2,62.1,198.7,52.2,286.1-16.2
		l-0.1-0.2l-41.8-32.8c-64.7,41.6-145,44.6-203.1,0.8c-77.4-58.4-85.9-177.5-19.1-266C165.2,226.7,282.1,202.2,359.4,260.6"/>
	<g id="message_2_">
		<g id="message_1_" style="display:inline;">
			<rect x="-45.5" y="388.9" style="fill:#FFFFFF;" width="498.5" height="64"/>
			<rect x="-46.9" y="570.2" style="fill:#FFFFFF;" width="355.9" height="64"/>
			<rect x="-46.9" y="207.6" style="fill:#FFFFFF;" width="457.7" height="64"/>
		</g>
	</g>
	<g id="svg_1_">
		<path id="G_1_" style="display:inline;fill:#FFFFFF;" d="M345.5,527.8h71.6v71.5l0,0c0,39.6-32,71.6-71.5,71.6
			c-39.5,0-71.5-32-71.5-71.6l0,0V498.1H274c0-39.5,32.1-71.6,71.5-71.6c39.6,0,71.6,32,71.6,71.6h-42c0-16.4-13.2-29.7-29.6-29.7
			c-16.2,0-29.5,13.3-29.5,29.7v101.2l0,0c0,16.4,13.3,29.7,29.5,29.7c16.4,0,29.6-13.3,29.6-29.6v-0.1v-29.6h-29.6L345.5,527.8
			L345.5,527.8z"/>
		<polygon id="V_1_" style="display:inline;fill:#FFFFFF;" points="274,426.6 223.5,670.9 181.6,670.9 131,426.6 172.9,426.6 
			202.6,569.7 232.2,426.6 		"/>
		<path id="S_1_" style="display:inline;fill:#FFFFFF;" d="M8.9,548.7c-12.9-12.9-20.9-30.8-20.9-50.6c0-39.5,32-71.6,71.5-71.6
			c39.5,0,71.5,32,71.5,71.6H89.1c0-16.4-13.3-29.7-29.6-29.7c-16.3,0-29.6,13.3-29.6,29.7c0,8.2,3.4,15.5,8.7,21l0,0
			c5.4,5.4,12.9,8.6,21,8.6v0.1c19.8,0,37.6,8,50.5,20.9l0,0c13,12.9,21,30.9,21,50.6c0,39.6-32,71.6-71.5,71.6
			c-39.5,0-71.5-32-71.5-71.6h41.8c0,16.4,13.3,29.6,29.6,29.6c16.3,0,29.6-13.2,29.6-29.6c0-8.1-3.3-15.5-8.8-20.9l0,0
			c-5.3-5.4-12.8-8.7-20.9-8.7l0,0C39.7,569.7,21.9,561.6,8.9,548.7L8.9,548.7L8.9,548.7z"/>
		<path id="shape_1_" style="display:inline;fill:#FFFFFF;" d="M440,408.1C440,408.1,440,408.1,440,408.1c0-24-19.5-43.5-43.4-43.5
			c-12,0-22.8,4.9-30.7,12.7h-88.8l62.7-62.8c11.1,0,22.3-4.3,30.7-12.7c17-17,17-44.5,0-61.5c-16.8-17-44.4-17-61.4,0
			c-8.4,8.5-12.7,19.6-12.7,30.7l-62.8,62.9v-88.8c7.8-7.9,12.8-18.7,12.8-30.8c0-24-19.5-43.4-43.5-43.4c-24,0-43.5,19.4-43.5,43.4
			c0,12.1,5,22.9,12.8,30.8v88.8l-62.7-62.9c0-11.1-4.3-22.2-12.8-30.7c-17-17-44.4-17-61.4,0c-17,17-17,44.5,0,61.5
			c8.5,8.4,19.7,12.7,30.7,12.7l62.8,62.8H40.2c-7.9-7.8-18.8-12.7-30.7-12.7c-24,0-43.5,19.5-43.5,43.5c0,0,0,0,0,0H440z"/>
	</g>
	<g id="timestamp_1_">
		
			<circle id="clock_2_" style="display:inline;fill:none;stroke:#FFFFFF;stroke-width:40;stroke-miterlimit:10;" cx="203" cy="420.9" r="230"/>
		<polyline id="hands_1_" style="display:inline;fill:none;stroke:#FFFFFF;stroke-width:40;stroke-miterlimit:10;" points="
			203.7,254 203.7,421.5 293.1,510.8 		"/>
	</g>
	<path id="themer_2_" style="fill:#FFFFFF;" d="M415.6,224.9v-3.6c0-13.9-4.7-25.8-14.1-35.7c-9.4-9.8-20.7-14.7-33.9-14.7H1.1
		c-13.3,0-24.6,4.9-34,14.7c-9.4,9.9-14,21.8-14,35.7v20.4c0,13.9,4.7,25.8,14,35.6c9.4,9.9,20.8,14.8,34,14.8h366.4
		c13.3,0,24.6-4.9,33.9-14.8c9.4-9.8,14.1-21.7,14.1-35.6v-0.9h22.1v59.9l-253.9,17.5c-2,0.1-3.7,1-5,2.5c-1.4,1.5-2.1,3.4-2.1,5.5
		v60.2h-42V426h11.9v231.7c0.3,8.5,4.5,12.9,12.6,13.2h50.2c8.1-0.3,12.3-4.7,12.6-13.2V426h11.9v-39.6h-42v-52.8l253.9-17.4
		c2-0.1,3.7-1,5-2.5c1.4-1.5,2.1-3.4,2.1-5.5v-75.4c0-2.2-0.7-4.1-2.2-5.6c-1.5-1.6-3.3-2.3-5.4-2.3H415.6 M184.3,619
		c4.6,0,8.5,1.7,11.6,5c3.2,3.4,4.9,7.5,4.9,12.3s-1.6,8.9-4.9,12.2c-3.2,3.4-7.1,5.1-11.6,5.1c-4.6,0-8.5-1.7-11.7-5.1
		c-3.2-3.3-4.8-7.4-4.8-12.2c0-4.8,1.6-8.9,4.8-12.3C175.8,620.6,179.7,619,184.3,619z"/>
	<g id="version_1_">
		<path style="display:inline;fill:#FFFFFF;" d="M72.5,576.2L-47.1,268.5h83.5l78.7,226.3l78.7-226.3h80.4L153.3,576.2H72.5z"/>
		<path style="display:inline;fill:#FFFFFF;" d="M323.9,542.8c0,22-15.4,36.9-36.9,36.9s-36.5-14.9-36.5-36.9
			c0-21.5,14.9-36.5,36.5-36.5S323.9,521.2,323.9,542.8z"/>
		<path style="display:inline;fill:#FFFFFF;" d="M374.8,576.2V330.9h-56.7v-62.8h134.9v308.1H374.8z"/>
	</g>
	<g id="protocool_1_">
		<path id="arrow2_1_" style="display:inline;fill:#FFFFFF;" d="M-12.5,654.2c-1.6-1-2.4-2.4-1.8-4.2l25.9-79.4
			c1.1-3.5,3-9.2,4.2-12.8l25.9-79.4c1.1-3.5,7.1-3.4,13.3,0.2l37.2,21.8c6.2,3.6,14.5,4.8,18.4,2.5L283.8,405
			c4-2.2,12.3-1.1,18.4,2.5l119.3,70c6.2,3.6,8,8.4,4,10.7l-173.2,97.9c-4,2.2-2.1,7,4,10.7l37.2,21.8c6.2,3.6,6.2,7.1,0.1,7.7
			l-138.4,13.4c-6.1,0.6-16.1,1.6-22.2,2.2L-5.2,655.3C-8.3,655.6-10.8,655.2-12.5,654.2 M436,469.4l-119.3-70
			c-18.6-10.9-43.4-14.3-55.3-7.6l-166,93.9l-26-15.2c-10.5-6.2-23.2-10-33.9-10.1c-10.7-0.2-18.2,3.3-20.2,9.3L-10.6,549l-3.1,9.6
			l-1,3.1l-25.9,79.4c-2.2,6.9,2.9,14.8,13.8,21.1c10.8,6.4,24.5,9.5,36.4,8.3L148,657.2l22.2-2.2l138.4-13.4
			c10.4-1,16.6-5.3,16.5-11.5c-0.1-6.2-6.4-13.5-17-19.7l-26-15.2l166-93.9C460,494.7,454.6,480.3,436,469.4"/>
		<path id="arrow1_1_" style="display:inline;fill:#FFFFFF;" d="M403.5,172.1c-1.6-1-4.2-1.4-7.2-1.1l-146.9,14.3
			c-6.1,0.6-16.1,1.6-22.2,2.2L80.2,201.6c-6.1,0.6-6.1,4,0.1,7.7l40.4,23.7c6.2,3.6,8,8.4,4,10.7l-167.2,94.5c-4,2.2-2.1,7,4,10.7
			l126.8,74.4c6.2,3.6,14.5,4.8,18.4,2.5l167.2-94.5c4-2.2,12.3-1.1,18.4,2.5l40.4,23.7c6.2,3.6,12.2,3.7,13.3,0.2l27.5-84.3
			c1.1-3.5,3-9.2,4.1-12.8l27.5-84.3C405.9,174.5,405.1,173.1,403.5,172.1"/>
	</g>
	<path id="grabber_1_" style="fill:#FFFFFF;" d="M144.8,226.9H82.5v-28h90.3v114.6h-28V226.9z M260.3,313.4v-86.6h62.3v-28h-90.3
		v114.6H260.3z M350.6,341.4v-86.6h32.1v-28h-60.1v114.6H350.6z M54.5,556.9v28h28v-28H54.5z M410.7,282.8v-28h-28v28H410.7l0,212.1
		h-28v88h28v-88h28V282.8H410.7z M354.8,642.9H110.4v-58h-28v86h0.3h300v-88h-28V642.9z M232.3,170.9h-59.6v28h59.6V170.9z
		 M-29.5,360.9v100.5h28V360.9H-29.5z M26.5,509.1v47.7h28v-47.7H26.5z M-1.5,461.4v47.7h28v-47.7H-1.5z M54.5,405.6h28V226.9h-28
		v106.1h-56v28h56V405.6z"/>
	<path id="developer_1_" style="fill:#FFFFFF;" d="M452.3,264.4c-0.6-5.5-7.3-7.8-11.2-3.9l-49.9,49.9c-9.9,9.9-25.9,9.9-35.8,0
		l-42.1-42.1c-9.9-9.9-9.9-25.9,0-35.8l49.8-49.8c3.9-3.9,1.5-10.6-4-11.2c-31.1-3.3-63.4,7.1-86.8,31c-23,23.6-32.7,55.3-29.1,85.8
		c2.5,21.5-6,42.9-22.4,57.1l-249,215.8c-25,25-25,65.8,0,90.8l0,0c25,25,65.8,25,90.8,0l214.7-249.2c14.2-16.4,35.6-25.1,57.1-22.4
		c31.2,4,63.9-6,87.8-30C445.7,326.9,455.7,295.1,452.3,264.4z M41,627.6C28.6,640,8.5,640-3.9,627.6s-12.4-32.5,0-44.9
		c12.4-12.4,32.5-12.4,44.9,0C53.4,595.1,53.4,615.2,41,627.6z"/>
	<path id="youarel_1_" style="fill:#FFFFFF;" d="M32.2,665.6c-19.9-6.8-32.8-14.8-46.8-28.9C-35.8,615.3-47,587.6-47,556.6
		c0-22.4,4.3-39.9,15.1-60.9c7.2-14,16.4-24.2,71.8-79.5c67.8-67.8,75.7-73.9,107.6-83.4c16.4-4.9,49.3-4.9,65.6,0
		c26.9,8,51.7,25.9,56.6,40.7c10,30.4-26.2,53.9-50.4,32.8c-13.2-11.5-21.9-14.8-39-14.7c-26.4,0-30.9,3.2-95.3,67.5
		c-43.6,43.5-58.3,59.6-63.2,69.1c-19.4,38.5,4.9,80.3,46.5,80c22.3-0.1,33.3-7,71-43.7l31.9-31.1l11.4,5.3
		c14.8,6.8,40.3,10.5,54.5,7.8l10.9-2l-52,51.3c-55.9,55.1-67.5,63.7-97.3,71.4C79,672.4,50,671.7,32.2,665.6L32.2,665.6z
		 M212,512.2c-33-3.2-69.3-24.4-75.9-44.1c-7.3-22.1,12.3-44.9,34.8-40.7c4,0.7,12.7,5.4,19.3,10.4c20.1,15.1,39.6,17.1,62.8,6.6
		c15.4-7,122.2-113.4,130.4-129.8c11.6-23.3,10-45.2-4.4-62.1c-11.8-13.8-23.6-19.2-41.4-19.1c-22.3,0.1-33.3,6.9-71,43.7
		l-31.9,31.1l-11.4-5.3c-14.8-6.8-40.3-10.5-54.5-7.8l-10.9,2l52-51.4c43.7-43.3,54.5-52.7,68-59.7c21-10.9,38.4-15.2,61.1-15.2
		c51.8,0,95.6,33.1,110.4,83.5c4.6,15.6,4.7,45,0.1,62.2c-1.9,7.3-7.2,20.5-11.7,29.3c-7.2,14-16.4,24.2-71.7,79.5
		c-65.5,65.5-72.7,71.3-101.2,81.5C251.8,511.6,228.8,513.9,212,512.2L212,512.2z"/>
	<g id="routify_1_">
		<path id="arrows_1_" style="display:inline;fill:#FFFFFF;" d="M293.1,358.4L293.1,358.4c-15.9,15.9-34.9,23.8-57.3,23.8h-98.6
			c-6.8,0-12.6,2.4-17.5,7.2c-4.8,4.8-7.2,10.7-7.2,17.5c0,6.8,2.4,12.6,7.2,17.4l203.9,203.9v-69.7L196.7,431.5h39.1
			c35.9,0,66.6-12.7,92.1-38.2c0,0,0,0,0.1-0.1c25.4-25.4,38.2-56.1,38.2-92.1c0-36-12.7-66.7-38.2-92.2
			c-25.4-25.4-56.1-38.1-92.1-38.1H19c-6.8,0-12.6,2.4-17.5,7.2c-4.8,4.8-7.2,10.7-7.2,17.5v353.9l49.3,49.4V220.2h192.2
			c22.4,0,41.4,7.9,57.2,23.7c15.9,15.9,23.8,35,23.8,57.3C316.8,323.5,308.9,342.6,293.1,358.4z"/>
		<path id="R_1_" style="display:inline;fill:#FFFFFF;" d="M24,670.9l13.1-5.4l-7.9-19.2h32l-66.9-66.9v88.9c0,0.9,0,1.8,0.1,2.6
			l21-21L24,670.9 M365.9,649.9l8.6,21l13.1-5.4l-7.9-19.2h32l-66.9-66.9v88.9c0,0.9,0,1.8,0.1,2.6L365.9,649.9z"/>
	</g>
</g>
<g id="icon">
	<path id="trim" style="display:none;fill:#FFFFFF;" d="M171.3,437.4l-1.2,24.9l-12,5.6c-6.1-1.7-14.6,0.9-25.5,7.7l-29,18.3
		c-21.9,13.8-39.1,16.4-51.8,7.8c-6.8-4.6-10.8-11-12-19.2c-1.3-8.2,0.5-15.9,5.4-23.1c6.9-10.3,16.5-16.9,28.7-20
		c12.1-3,22.8-1.4,31.9,4.8c0.7,0.5,2.8,2.2,6.5,5.2l2.8,2.1c1.7,1.4,3,2.4,4,3c6,4.1,14.4,2.8,25.2-3.8c2-1.1,3.9-2.1,5.9-3.1
		L171.3,437.4z M177.4,479.1l7.5-201.1c1.3-2.6,2.7-5,4.2-7.2c7.8-11.5,17.8-21.3,30-29.5l-14.5,209.3c-0.4,6.5-0.9,10.9-1.4,13.1
		l-0.9,3.4c-2.2,9,0.2,15.8,7.1,20.5l1.1,0.8l3.3,1.9l6.4,3.8c11.7,7.1,18.6,20.7,20.6,40.7c2.1,20.1-1.7,37.3-11.3,51.5
		c-4.9,7.2-10.7,11.8-17.4,13.9c-6.7,2.1-12.9,1.3-18.5-2.5c-7.3-4.9-10.6-17.6-9.9-37.9l2.2-56.4c0.5-12.3-1.5-20-5.8-22.9
		C179.5,480.2,178.7,479.7,177.4,479.1z M88.8,488.9l7.2-4.1c6.3-3.8,10.6-7.3,12.9-10.8c4.5-6.7,2.1-13.2-7.2-19.5
		c-6.8-4.6-15.2-5.8-25.2-3.5c-9.9,2.3-17.4,7.1-22.4,14.5c-3,4.4-4,9.3-3.1,14.6c0.9,5.3,3.5,9.4,7.7,12.3
		C65.8,497.3,75.8,496.1,88.8,488.9z M196.1,524.6l-1.6,40.7c-0.4,12.5,1.5,20.1,5.6,22.9c3.4,2.3,6.8,2.6,10.3,1.1
		c3.5-1.5,7-5,10.6-10.3c7.5-11,10.5-24.7,9.1-41.1c-1.4-16.4-6.6-27.6-15.5-33.7c-6-4.1-10.8-3.5-14.3,1.8
		C198,509.2,196.7,515.4,196.1,524.6z M197.8,446.2c2.8-4.1,2.2-7.5-1.7-10.1c-3.9-2.7-7.3-1.9-10,2.1c-2.7,4-2.1,7.3,1.8,10
		C191.8,450.9,195.1,450.2,197.8,446.2z M212.8,443.7l1.5-27.1l153.2-74.9c-2.8,13.1-7.3,24.3-13.6,33.6c-2.5,3.8-5.6,7.6-9.2,11.5
		L212.8,443.7z"/>
	<g id="video_1_" style="display:none;">
		<path id="film" style="display:inline;fill:#FFFFFF;" d="M380.3,559.8h-13.1c-4.5,0-8.1-3.7-8.1-8.3v-11.1c0-4.6,3.6-8.3,8.1-8.3
			h13.1c1.5,0,2.7-1.2,2.7-2.8v-3.1c0-1.5-1.2-2.8-2.7-2.8h-11.6V318.4h11.6c1.5,0,2.7-1.2,2.7-2.8v-3.1c0-1.5-1.2-2.8-2.7-2.8
			h-13.1c-4.5,0-8.1-3.7-8.1-8.3v-11.1c0-4.6,3.6-8.3,8.1-8.3h13.1c1.5,0,2.7-1.2,2.7-2.8v-5.6c0-1.5-1.2-2.8-2.7-2.8H25.7
			c-1.5,0-2.7,1.2-2.7,2.8v5.6c0,1.5,1.2,2.8,2.7,2.8h13.1c4.5,0,8.1,3.7,8.1,8.3v11.1c0,4.6-3.6,8.3-8.1,8.3H25.2
			c-1.2,0-2.2,1-2.2,2.3v4.1c0,1.2,1,2.3,2.2,2.3h12.1v204.9H25.7c-1.5,0-2.7,1.2-2.7,2.8v3.1c0,1.5,1.2,2.8,2.7,2.8h13.1
			c4.5,0,8.1,3.7,8.1,8.3v11.1c0,4.6-3.6,8.3-8.1,8.3H25.7c-1.5,0-2.7,1.2-2.7,2.8v5.6c0,1.5,1.2,2.8,2.7,2.8h354.6
			c1.5,0,2.7-1.2,2.7-2.8v-5.6C383,561,381.8,559.8,380.3,559.8z M301.3,290.3c0-4.6,3.6-8.3,8.1-8.3h18.8c4.5,0,8.1,3.7,8.1,8.3
			v11.1c0,4.6-3.6,8.3-8.1,8.3h-18.8c-4.5,0-8.1-3.7-8.1-8.3V290.3z M243.4,290.3c0-4.6,3.6-8.3,8.1-8.3h18.8c4.5,0,8.1,3.7,8.1,8.3
			v11.1c0,4.6-3.6,8.3-8.1,8.3h-18.8c-4.5,0-8.1-3.7-8.1-8.3V290.3z M185.5,290.3c0-4.6,3.6-8.3,8.1-8.3h18.8c4.5,0,8.1,3.7,8.1,8.3
			v11.1c0,4.6-3.6,8.3-8.1,8.3h-18.8c-4.5,0-8.1-3.7-8.1-8.3V290.3z M127.7,290.3c0-4.6,3.6-8.3,8.1-8.3h18.8c4.5,0,8.1,3.7,8.1,8.3
			v11.1c0,4.6-3.6,8.3-8.1,8.3h-18.8c-4.5,0-8.1-3.7-8.1-8.3V290.3z M69.8,290.3c0-4.6,3.6-8.3,8.1-8.3h18.8c4.5,0,8.1,3.7,8.1,8.3
			v11.1c0,4.6-3.6,8.3-8.1,8.3H77.9c-4.5,0-8.1-3.7-8.1-8.3V290.3z M104.7,551.4c0,4.6-3.6,8.3-8.1,8.3H77.9c-4.5,0-8.1-3.7-8.1-8.3
			v-11.1c0-4.6,3.6-8.3,8.1-8.3h18.8c4.5,0,8.1,3.7,8.1,8.3V551.4z M162.6,551.4c0,4.6-3.6,8.3-8.1,8.3h-18.8
			c-4.5,0-8.1-3.7-8.1-8.3v-11.1c0-4.6,3.6-8.3,8.1-8.3h18.8c4.5,0,8.1,3.7,8.1,8.3V551.4z M220.5,551.4c0,4.6-3.6,8.3-8.1,8.3
			h-18.8c-4.5,0-8.1-3.7-8.1-8.3v-11.1c0-4.6,3.6-8.3,8.1-8.3h18.8c4.5,0,8.1,3.7,8.1,8.3V551.4z M278.3,551.4
			c0,4.6-3.6,8.3-8.1,8.3h-18.8c-4.5,0-8.1-3.7-8.1-8.3v-11.1c0-4.6,3.6-8.3,8.1-8.3h18.8c4.5,0,8.1,3.7,8.1,8.3V551.4z
			 M336.2,551.4c0,4.6-3.6,8.3-8.1,8.3h-18.8c-4.5,0-8.1-3.7-8.1-8.3v-11.1c0-4.6,3.6-8.3,8.1-8.3h18.8c4.5,0,8.1,3.7,8.1,8.3V551.4
			z M351.7,523.4H54.3V318.4h297.3V523.4z"/>
		<polygon id="play" style="display:inline;fill:#FFFFFF;" points="128,485.9 128,355.9 278,420.7 		"/>
	</g>
	<g id="wrap" style="display:none;">
		<path id="face" style="display:inline;fill:#FFFFFF;" d="M313.7,430.7c1.2-6.2,2.2-12.4,2.9-18.8c0.6-5.5,1-11,1.4-16.5
			c1.6-1.1,3.1-2.2,4.5-3.5c1.4-1.3,2.3-2.8,2.9-4.5c0.5-2.3,0.7-5.2,0.7-8.2c-0.4-30.2-2.1-65.8-19-91.9
			c-11.1-17.3-27.6-30.9-47.3-37.1c-16-5-35.5-9.1-52.5-9.3c-28.6-0.4-68.9,5.7-89.1,24c-17.7,16-27.5,38.9-32.1,62
			c-2,9.9-6.5,31.7-5,48.5c-6.3,0.6-12.7,2.8-18.1,4.7c-8,2.8-19.5,5.3-25.3,12c-2.7,3.1-3.6,7.4-1.6,10.7c4.2,6.8,14.6,7.2,22.6,8
			c11,1.1,22.1,2.3,33.3,3.5c0.6,5.5,1.5,11,2.6,16.4c-14.1-4.9-16.8,9.9-14.5,19.4c3,12.5,13.2,24.1,27.7,31.4
			c1.4,5.1,2.7,10.2,3.9,15.3c3.9,16.9,7.3,35,15.2,50.9c4.4,8.8,10,16,16.6,23.2c6.5,7.1,11.7,15.5,19.4,21.4
			c12.1,9.4,26.9,8.4,41.4,8.5c14.5-0.1,29.3,1,41.4-8.5c7.7-5.9,12.9-14.3,19.4-21.4c6.6-7.2,12.2-14.4,16.6-23.2
			c7.9-15.9,11.3-34.1,15.2-50.9c1.2-5.1,2.5-10.2,3.8-15.3c2.9-1.4,5.6-3.1,8.1-4.8c0.1,0,0.1,0,0.2,0c2.2,0,4-1.5,4.4-3.6
			c7.7-6.6,13-14.6,15.1-23.1C330.6,440.6,327.8,425.7,313.7,430.7z M298.8,457.9c-0.6,0.8-1.8,1.3-3.7,1.5
			c-0.8,11-6.5,24.8-16.9,31.4c-4.6,2.9-9.6,4.4-14.9,4.4c-5.9,0-12.1-1.8-18.3-5.3c-5.4-3.1-10.5-7.2-14.9-12.2
			c-5-5.5-13.4-16.7-15.1-28c-0.1-0.2-0.1-0.3-0.1-0.5c-1.4-1.5-2.8-2.5-4.2-3.4c-1-0.5-1.9-0.8-3-1.2c-0.1,0-0.3-0.1-0.4-0.1
			c-0.3-0.1-0.5-0.2-0.8-0.2c-0.4-0.1-0.7-0.2-1.2-0.2c-0.1,0-0.3,0-0.5,0c-0.3,0-0.6,0-1,0c-0.3,0-0.6,0-1,0
			c-0.2,0.1-0.4,0.1-0.6,0.1c-0.3,0-0.7,0-1.1,0.1c-0.2,0.1-0.5,0.1-0.8,0.2l-0.3,0.1c-1.1,0.3-2,0.6-3,1.2c-1.5,0.8-3,2-4.2,3.4
			c-0.1,0.2-0.1,0.3-0.1,0.5c-1.7,11.4-10.2,22.4-15.1,28c-4.4,5-9.4,9.1-14.9,12.2c-6.2,3.5-12.3,5.3-18.3,5.3
			c-5.3,0-10.3-1.5-14.9-4.4c-10.4-6.5-15.9-20.4-16.9-31.4c-1.9-0.2-3.1-0.6-3.7-1.5c-0.2-0.4-0.5-1.2-0.2-2.2
			c0.6-2.1,2.4-2.7,4-2.8c0.2-1.2,0.3-2.3,0.6-3.4c2.7-10.7,11.3-19.8,21.9-23.2c7.1-2.2,14.8-2.5,20.6-2.5c2.5,0,5.1,0,7.4,0.1
			c4.5,0.1,9.2,0.4,13.7,1.8c1.7-0.7,3.7-1,5.5-1.2c4.6-0.5,9.3-0.8,14.3-1.1c2-0.1,4-0.1,6.4-0.1h0.7h0.6c2.3,0,4.4,0,6.4,0.1
			c5.1,0.2,9.8,0.5,14.3,1.1c1.8,0.1,3.8,0.4,5.5,1.2c4.5-1.3,9.2-1.7,13.7-1.8c2.4,0,5-0.1,7.4-0.1c5.8,0,13.5,0.2,20.6,2.5
			c10.7,3.4,19.2,12.5,21.9,23.2c0.3,1.1,0.5,2.2,0.6,3.4c1.6,0.1,3.4,0.6,4,2.8C299.5,456.8,299.2,457.5,298.8,457.9z"/>
		<path id="glasses" style="display:inline;fill:#FFFFFF;" d="M223,428c-5-0.2-10-0.3-13.7-0.3c-1.1,0-2,0-3.1,0H204h-2.2
			c-1.1,0-2,0-3.1,0c-3.8,0-8.7,0.1-13.7,0.3h-0.6c-0.5,0.1-1.1,0.1-1.6,0.1c1.2,0.6,2.2,1.4,3.3,2.3c4,3.5,6.3,7.9,6.9,12.8
			c0.5-0.5,1.2-0.8,1.8-1.3c0.2-0.3,0.5-0.5,0.8-0.7c2.4-1.1,5.1-1.7,7.9-1.7c0.2,0,0.4,0,0.6,0c0.1,0,0.3,0,0.5,0
			c2.8,0,5.4,0.5,7.9,1.7c0.4,0.1,0.6,0.4,0.8,0.7c0.6,0.4,1.2,0.8,1.8,1.3c0.6-5,3-9.3,6.8-12.8c1.1-1,2.1-1.7,3.3-2.3
			c-0.5-0.1-1.1-0.1-1.6-0.1H223z"/>
	</g>
	<path id="yello_1_" style="display:none;fill:#FFFFFF;" d="M209.4,397.5c-2.5-10.3-7.1-18.4-13.9-24.3
		c-7.7-6.8-17.7-10.2-29.8-10.2c-9.6,0-18,2-25.5,6.2c-6.7,3.7-12.3,8.9-16.7,15.6l6.8-19.3H96.3l-12.5,50.1
		c-0.4,1.5-1.1,4.7-2.3,9.6c-1,4.2-1.8,7.4-2.3,9.4h-0.6c-0.7-3.2-2.4-9.6-5-19.1l-15.2-50.1H23l37.6,93.4c0.8,2,1.2,3.7,1.2,5.2
		c0,1.3-0.6,2.8-1.6,4.5c-1.5,2.5-3.4,4.9-5.8,7.4c-2.4,2.4-4.9,4.1-7.3,5.4c-4.7,2.7-9.3,4.5-13.8,5.4l6.6,26.8
		c4.8-0.5,9.6-1.7,14.4-3.7c5.9-2.4,11.4-5.9,16.4-10.3c6.1-5.4,11.7-12.7,16.8-22.1c5.8-10.5,12.1-25.4,19.1-44.8l7.9-22.5
		c-0.2,2.4-0.4,4.7-0.4,7.2c0,16.2,4.8,29,14.3,38.2c9.6,9.3,23,14,40.2,14c14.4,0,26.7-2.2,37-6.4l-4.1-21.6
		c-8.5,2.9-17.9,4.4-28.2,4.4c-7.9,0-14.4-1.6-19.6-4.8c-5.7-3.5-8.8-8.4-9.2-14.8l64.9,0.2v40.9h31.8V328.2h-31.7V397.5
		 M178.4,391.6c2.4,3.7,3.5,8.1,3.5,13.1h-37.6c0.6-5.2,2.3-9.6,5.2-13.5c3.7-4.8,8.6-7.2,14.7-7.2
		C170.5,384,175.2,386.6,178.4,391.6 M331,363.1c-14.2,0-26,3.6-35.6,11c-9.5,7.3-15.5,17.3-17.9,30v-76h-31.7v139.4h31.7V430
		c0.7,3.7,1.9,7.2,3.2,10.5c1.8,4.2,4.1,8,7.1,11.4c0.5,0.6,1,1.1,1.5,1.7c4.7,5.2,10.5,9.2,17.2,11.9c8,2.7,15.6,4.1,22.6,4.2h0.2
		c3.7,0,7.3-0.3,10.8-0.9c2-0.3,4.1-0.8,6.1-1.4c3.2-1,6.4-2.2,9.4-3.7c8.5-4.2,15.2-10.3,19.9-18.2l1.7-3.1c0.3-0.6,0.6-1.4,1-2
		c0.2-0.6,0.5-1.1,0.7-1.8c2.8-6.9,4.2-14.7,4.2-23.3c0-15.5-4.8-28.1-14.4-37.8C359,368,346.4,363.1,331,363.1 M329.7,385.9
		c6.7,0,11.9,3.2,15.6,9.6c3.2,5.5,4.7,12.5,4.7,20.9c0,9.4-1.9,16.9-5.5,22.4c0,0.1-0.1,0.1-0.1,0.2l-0.2,0.2
		c-0.3,0.5-0.6,0.9-1,1.4c-0.8,1-1.6,1.9-2.5,2.6l-0.1,0.1c-1.1,0.9-2.1,1.5-3.2,2.2c-2.3,1.1-4.7,1.7-7.4,1.7h-0.6
		c-5.7,0-10.2-2.2-13.8-6.6c-0.5-0.6-0.9-1.1-1.3-1.8c-0.1-0.2-0.2-0.3-0.3-0.5c-3.6-5.5-5.3-12.8-5.3-21.7c0-8.5,1.6-15.6,4.8-21.1
		C317.3,389.1,322.7,385.9,329.7,385.9z"/>
	<path id="quick" style="display:none;fill:#FFFFFF;" d="M303,381l-107.1,17.2l60.7-157.3L103,464.4l88.3-15l-59.6,151.4L303,381z"
		/>
	<path id="browser" style="display:none;fill:#FFFFFF;" d="M365,270.9H41c-9.9,0-18,8.1-18,18v264c0,9.9,8.1,18,18,18h324
		c9.9,0,18-8.1,18-18v-264C383,278.9,374.9,270.9,365,270.9z M101,294.9h36v36h-36V294.9z M47,294.9h36v36H47V294.9z M359,546.9H47
		v-192h312V546.9z M359,330.9H155v-36h204V330.9z"/>
	<path id="seo" style="display:none;fill:#FFFFFF;" d="M373.4,548.9l-93.9-87c-3.6-3.3-7.7-5.5-12-6.8
		c16.1-22.2,25.6-49.6,25.6-79.1c0-74.6-60.4-135-135-135s-135,60.5-135,135s60.4,135,135,135c26.4,0,51-7.6,71.8-20.6
		c1.3,5.8,4.2,11.3,8.9,15.6l93.9,87c5.8,5.3,13.1,8,20.4,8c8.1,0,16.1-3.2,22-9.6C386.3,579.1,385.5,560.1,373.4,548.9z M53,375.9
		c0-57.9,47.1-105,105-105s105,47.1,105,105s-47.1,105-105,105S53,433.8,53,375.9z"/>
	<g id="image" style="display:none;">
		<path id="polaroid" style="display:inline;fill:#FFFFFF;" d="M364.9,567.6L346,255.7c-0.5-8.7-8.1-15.3-16.7-14.8L55.9,257.5
			c-8.7,0.5-15.3,8-14.8,16.7l18.9,311.8c0.5,8.7,8.1,15.3,16.7,14.8l273.3-16.6C358.7,583.8,365.4,576.2,364.9,567.6z M85.8,532.6
			l-15-247l247-15l15,247L85.8,532.6z"/>
		<polygon id="fields" style="display:inline;fill:#FFFFFF;" points="100.7,443.7 162.5,388.8 227.1,434.5 260.1,408.9 309.5,443.6 
			313,500.4 104.9,513.1 100.7,443.7 		"/>
		<path id="sun" style="display:inline;fill:#FFFFFF;" d="M255.6,307.3c18-1.1,33.5,12.6,34.6,30.7c1.1,18-12.6,33.5-30.7,34.6
			c-18,1.1-33.5-12.6-34.6-30.7C223.9,323.9,237.6,308.4,255.6,307.3L255.6,307.3z"/>
	</g>
	<g id="translate" style="display:none;">
		<path id="A" style="display:inline;fill:#FFFFFF;" d="M183.1,463.4c-10.3-5-19.4-10.3-27.6-16c37.9-38.5,48.6-82.6,54-104.9
			c0.7-2.9,1.3-5.4,1.9-7.3h41.5V308H152.2v-47.1h-27v47H26.1v27.4h157.2c-0.1,0.3-0.1,0.6-0.2,0.9c-5.2,21.6-14.5,60.5-48.7,93.9
			c-29.4-28.8-40.4-61.8-46.2-84.2h-28c5.6,23.2,17,64.9,53.1,101.6C91.4,462.9,62.1,476,23,483.6l5.2,26.8
			c46.6-9.1,80.9-25.4,106.3-44.6c11.4,8.6,24.6,16.7,39.9,23.7L183.1,463.4z"/>
		<path id="A_1_" style="display:inline;fill:#FFFFFF;" d="M233,520.8l-17.5,60.1H160l74.4-225H305l78,225h-58.2L305,520.8H233z
			 M296.4,481.8l-16.2-48.1c-4.3-13-8.6-28.1-12.3-40.7h-0.7c-3.6,12.7-7,27.8-10.9,40.7l-15.1,48.1H296.4z"/>
	</g>
	<g id="identify" style="display:none;">
		<path id="tag" style="display:inline;fill:#FFFFFF;" d="M363.3,326.4H240.1c-3.3,0-5.9,2.7-5.9,6c0,3.3,2.6,6,5.9,6h4.7
			c4.2,0,8,3.2,8.4,7.4c0.5,4.9-3.4,9.1-8.1,9.1h-83.8c-4.2,0-8-3.2-8.4-7.4c-0.5-4.9,3.4-9.1,8.1-9.1h4.9c3.3,0,5.9-2.7,5.9-6
			c0-3.3-2.6-6-5.9-6H42.7c-10.9,0-19.7,8.9-19.7,19.9V526c0,11,8.8,19.9,19.7,19.9h320.6c10.9,0,19.7-8.9,19.7-19.9V346.2
			C383,335.3,374.2,326.4,363.3,326.4z M117.3,374.1c18.2,0,32.9,14.9,32.9,33.2c0,18.3-14.7,33.2-32.9,33.2s-32.9-14.9-32.9-33.2
			C84.4,389,99.1,374.1,117.3,374.1z M183.8,507c0,6.5-5.2,11.7-11.6,11.7H62.4c-6.4,0-11.6-5.3-11.6-11.7v-11.4
			c0-36.9,29.9-45.8,66.5-45.8h0c36.6,0,66.5,8.9,66.5,45.8V507z M343.8,494.1h-120v-16.6h120V494.1z M343.8,450.1h-120v-16.6h120
			V450.1z M343.8,406.1h-120v-16.6h120V406.1z"/>
		<path id="id" style="display:inline;fill:#FFFFFF;" d="M183.5,349.3h39c4.2,0,7.6-3.4,7.6-7.7v-45.8h-54.2v45.8
			C175.9,345.9,179.3,349.3,183.5,349.3z"/>
	</g>
	<path id="focus" style="display:none;fill:#FFFFFF;" d="M373.1,410.9h-20.5c-5-74.8-64.9-134.7-139.6-139.6v-20.5
		c0-5.5-4.4-9.9-9.9-9.9h-0.2c-5.5,0-9.9,4.4-9.9,9.9v20.5c-74.8,5-134.7,64.9-139.6,139.6H32.9c-5.5,0-9.9,4.4-9.9,9.9v0.2
		c0,5.5,4.4,9.9,9.9,9.9h20.5c5,74.8,64.9,134.7,139.6,139.6V591c0,5.5,4.4,9.9,9.9,9.9h0.2c5.5,0,9.9-4.4,9.9-9.9v-20.5
		c74.8-5,134.7-64.9,139.6-139.6h20.5c5.5,0,9.9-4.4,9.9-9.9v-0.2C383,415.3,378.6,410.9,373.1,410.9L373.1,410.9z M322.6,410.9H305
		c-4.7-48.5-43.4-87.3-92-92v-17.5C271.2,306.2,317.7,352.7,322.6,410.9L322.6,410.9z M257.9,430.9h32
		c-4.6,40.3-36.6,72.3-76.9,76.9v-32c0-5.5-4.4-9.9-9.9-9.9h-0.2c-5.5,0-9.9,4.4-9.9,9.9v32c-40.3-4.6-72.3-36.6-76.9-76.9h32
		c5.5,0,9.9-4.4,9.9-9.9v-0.2c0-5.5-4.4-9.9-9.9-9.9h-32c4.6-40.3,36.6-72.3,76.9-76.9v32c0,5.5,4.4,9.9,9.9,9.9h0.2
		c5.5,0,9.9-4.4,9.9-9.9v-32c40.3,4.6,72.3,36.6,76.9,76.9h-32c-5.5,0-9.9,4.4-9.9,9.9v0.2C248,426.5,252.4,430.9,257.9,430.9
		L257.9,430.9z M193,301.3v17.5c-48.5,4.7-87.3,43.5-92,92H83.4C88.3,352.7,134.8,306.2,193,301.3L193,301.3z M83.4,430.9H101
		c4.7,48.6,43.5,87.3,92,92v17.6C134.8,535.6,88.3,489.1,83.4,430.9L83.4,430.9z M213,540.4v-17.6c48.6-4.7,87.3-43.4,92-92h17.6
		C317.7,489.1,271.2,535.6,213,540.4L213,540.4z M213,540.4"/>
	<g id="log" style="display:none;">
		<path id="less" style="display:inline;fill:#FFFFFF;" d="M152.1,567.8L40,455.7c-19.2-19.2-19.2-50.5,0-69.8l14.1-14.1l0.1,0.1
			l97.9-97.9l28.3,28.3L67.5,415.2c-2.8,3.7-2.5,8.9,0.8,12.3l112.1,112.1L152.1,567.8z"/>
		<path id="great" style="display:inline;fill:#FFFFFF;" d="M253.7,568.4L225.3,540l113.4-113.4c1.6-2.1,1.9-4.4,1.9-5.7
			c0-1.4-0.4-4.2-2.8-6.6L225.3,301.8l28.4-28.4l112.5,112.5c9.4,9.4,14.5,21.8,14.5,35c0,13.2-5.2,25.7-14.5,35L352,470.2l-0.1-0.1
			L253.7,568.4z"/>
	</g>
	<path id="pallete" style="display:none;fill:#FFFFFF;" d="M381.3,257.3c-1.4-1.4-3.4-2-5.3-1.5l-25.7,5.8
		c-1.7,0.4-10.5,2.7-14.7,7.1c-6.7,6.8-8.5,16.5-5.8,25.1c-1.6-0.4-3.4-0.1-4.8,1l-40.8,32.7c-1.3,1-2,2.5-2.1,4.2
		c0,0.1,0,0.2,0,0.4c-0.1,0-0.1,0-0.2,0c-1.6,0-3.1,0.7-4.1,1.9l-24.9,27c-8.6,3.4-16.3,8.4-22.8,14.9c-4.5,4.5-10.6,7-17,7
		c-6.4,0-12.4-2.5-17-7c-4.9-4.9-7.4-11.6-7-18.5c0-0.5,0-1-0.1-1.4v0c0-0.8,0.1-1.7,0.1-2.5c0-0.2,0-0.4,0-0.6c0-0.2,0-0.3,0-0.5
		c-0.6-17.2-7.6-33.3-19.7-45.4C156.7,294,139.7,287,121.6,287c-14.1,0-27.6,4.3-39.1,12.4c-3.4,2.4-6.3,4.8-8.9,7.4
		c-0.9,0.9-1.8,1.9-2.6,2.9l-0.3,0.4c-0.2,0.1-0.3,0.3-0.5,0.4c-63,63-63,165.4,0,228.4c30.5,30.5,71.1,47.3,114.2,47.3
		c43.2,0,83.7-16.8,114.2-47.3c31.2-31.2,48-72.6,47.3-116.7c0-0.6-0.1-1.1-0.3-1.7c-0.7-17-7.7-32.9-19.7-44.9
		c-6.2-6.2-13.6-11.1-21.8-14.5l0.6-0.5c1.2-1.1,1.8-2.5,1.9-4.1c0,0,0-0.1,0-0.1c0,0,0,0,0,0c0.1,0,0.2,0,0.3,0
		c1.6-0.1,3.1-0.9,4.2-2.1l32.7-40.8c1-1.2,1.3-2.7,1.2-4.2c2.5,0.9,5.2,1.4,7.9,1.4c6.5,0,12.7-2.6,17.3-7.2
		c3.2-3.3,7.5-17,12.7-40.8C383.3,260.7,382.7,258.7,381.3,257.3z M193.9,441.9l66.8-72.6h0l21.6-23.5l10.3,10.3l-96,88.4l-3.2,0.6
		L193.9,441.9z M68.6,453.9c-4.8-4.8-7.5-11.2-7.5-18c0-6.8,2.7-13.2,7.5-18c4.8-4.8,11.2-7.5,18-7.5c6.8,0,13.2,2.6,18,7.5
		c9.9,9.9,9.9,26.1,0,36c-4.8,4.8-11.2,7.5-18,7.5C79.8,461.4,73.4,458.8,68.6,453.9z M141.9,519.1c-4.8,4.8-11.2,7.5-18,7.5
		c-6.8,0-13.2-2.6-18-7.5c-4.8-4.8-7.5-11.2-7.5-18c0-6.8,2.7-13.2,7.5-18c4.8-4.8,11.2-7.4,18-7.4c6.8,0,13.2,2.6,18,7.4
		C151.8,493,151.8,509.2,141.9,519.1z M153,366.8c-4.3,4.3-10.2,6.6-16.6,6.6c-8.1,0-16.4-3.6-22.8-10
		c-11.8-11.8-13.3-29.5-3.4-39.4c4.3-4.3,10.2-6.6,16.6-6.6c8.1,0,16.4,3.6,22.8,10c5.6,5.6,9,12.6,9.8,19.8
		C160.3,354.8,158,361.8,153,366.8z M205.1,554.4c-4.8,4.8-11.2,7.5-18,7.5c-6.8,0-13.2-2.6-18-7.5c-4.8-4.8-7.5-11.2-7.5-18
		c0-6.8,2.7-13.2,7.5-18c4.8-4.8,11.2-7.5,18-7.5c6.8,0,13.2,2.7,18,7.5C215.1,528.3,215.1,544.5,205.1,554.4z M268.9,518.6
		c-4.8,4.8-11.2,7.5-18,7.5c-6.8,0-13.2-2.6-18-7.5c-4.8-4.8-7.5-11.2-7.5-18c0-6.8,2.6-13.2,7.5-18c4.8-4.8,11.2-7.5,18-7.5
		c6.8,0,13.2,2.7,18,7.5c4.8,4.8,7.5,11.2,7.5,18C276.3,507.4,273.7,513.8,268.9,518.6z M304.9,418.7c4.8,4.8,7.5,11.2,7.5,18
		c0,6.8-2.7,13.2-7.5,18c-4.8,4.8-11.2,7.5-18,7.5c-6.8,0-13.2-2.7-18-7.5c-4.8-4.8-7.5-11.2-7.5-18c0-6.8,2.6-13.2,7.5-18
		c4.8-4.8,11.2-7.5,18-7.5C293.6,411.2,300,413.9,304.9,418.7z M306.1,342l-9.7-9.7l31.7-25.4l3.4,3.4L306.1,342z M362,295.3
		c-4.9,4.9-13.3,4.9-18.2,0c-5.1-5.1-5.1-13.5,0-18.7c1.3-1.3,5.9-3.1,9.2-4l16.7-3.7C366.7,281.3,363.3,293.2,362,295.3z"/>
	<g id="pirate" style="display:none;">
		<path style="display:inline;fill:#FFFFFF;" d="M355.3,375.8c-11.9,0-21.7-5.7-30.1-17.4c-7.2-10-12.8-23.6-18.7-38
			c-12.2-29.5-25.9-62.7-57.4-79c-3.9,33.5-22.9,58-45.7,58c-12,0-23.4-6.8-32-19.3c-7.3-10.5-12.1-24.2-13.8-39.1
			c-32,16.2-45.9,49.7-58.2,79.4c-5.9,14.4-11.6,28-18.7,38c-8.4,11.7-18.2,17.4-30.1,17.4c-1.4,0-2.8-0.1-4.3-0.2
			c-1.6,4.1-2.2,7.9-2.4,10.4c16.1,31.6,57.3,40.8,83.4,43.4c0-2.7,0-4.1,0-4.5c0-0.1,0-0.2,0-0.2c0-4.6,1.4-8.9,4.1-12.9
			c3.9-5.9,10.5-11,19.4-14.9c13.5-6,32.2-9.2,52.5-9.2c20.3,0,38.9,3.3,52.5,9.2c8.9,3.9,15.5,9,19.4,14.9
			c2.5,3.8,3.9,7.9,4.1,12.3c0,0.3,0,0.6,0,0.9c0,0.2,0,0.4,0,0.6l0,0.1v3.7c12.2-1.2,28.4-4,43.6-10.3c18.6-7.6,31.7-18.8,39-33.1
			c-0.3-3.2-1.1-7.9-2-10.5C358.3,375.7,356.8,375.8,355.3,375.8z"/>
		<path style="display:inline;fill:#FFFFFF;" d="M203.4,391.7c-39.6,0-71.6,12.6-71.9,33v9.1v22.6c0,4.2,3.4,7.6,7.6,7.6h14.7
			c6.1,0,11.1,5.2,11.1,11.6v9.4c0,4.2,3.4,7.6,7.6,7.6h30.8h30.8c4.2,0,7.6-3.4,7.6-7.6v-9.4c0-6.4,5-11.6,11.1-11.6h14.7
			c4.2,0,7.6-3.4,7.6-7.6v-22.6v-8.2v-1.5C274.4,404,242.6,391.7,203.4,391.7z M171.7,451.7c-12.4-0.9-21-12.7-20.1-25.1
			c0.4-6.2,12.2-7.1,23.4-6.3c11.2,0.8,21.8,5.7,21.4,11.9C195.5,444.7,184.1,452.5,171.7,451.7z M213.4,468.6
			c-0.4,0.4-0.9,0.6-1.4,0.6c-0.3,0-0.6-0.1-0.8-0.2l-7.8-3.4l-7.8,3.4c-0.3,0.1-0.6,0.2-0.8,0.2c-0.5,0-1-0.2-1.4-0.6
			c-0.6-0.6-0.8-1.5-0.5-2.3l8.6-22.4c0.3-0.8,1.1-1.3,2-1.3c0.9,0,1.6,0.5,1.9,1.3l8.6,22.4C214.3,467.1,214.1,468,213.4,468.6z
			 M235.1,451.7c-12.4,0.9-23.8-7-24.7-19.4c-0.4-6.2,10.2-11.2,21.4-11.9c11.2-0.8,23,0.1,23.4,6.3
			C256.1,439,247.5,450.8,235.1,451.7z"/>
		<path style="display:inline;fill:#FFFFFF;" d="M97.3,574.5l38.6-13.3c-0.1-0.4-0.2-0.9-0.3-1.3l-3-8.9l-41.6,14.3l1.3,3.7
			c0.6,1.8,1.6,3.4,2.8,4.8C95.5,574.6,96.4,574.8,97.3,574.5z"/>
		<path style="display:inline;fill:#FFFFFF;" d="M146.1,561.8l-6.1-17.7c-0.7-1.9-2.8-3-4.7-2.3l-0.1,0c-1.9,0.7-3,2.8-2.3,4.7
			l1.4,3.9l3,8.9c0.1,0.4,0.3,0.9,0.3,1.3c0.7,3.7-1.1,7.4-4.4,9.3c-4.6,2.6-9.8,4.7-15.3,6.7c-4.8,1.6-9.6,2.4-14.4,2.5
			c-3.6,0.1-6.9-1.2-9.4-3.5c-1.7-1.5-3.1-3.5-3.9-5.8L89,566l-0.8-2.2c-0.7-1.9-2.8-3-4.7-2.3l-0.1,0c-1.9,0.7-3,2.8-2.3,4.7
			l3.9,11.4h0c5.7,16.4,24.1,26.9,40.5,21.3C141.7,593.4,151,577.9,146.1,561.8L146.1,561.8z"/>
		<path style="display:inline;fill:#FFFFFF;" d="M79.9,569.2c-1.8,0.6-2.7,2.8-2,4.9l0.9,2.5c0.7,2.1,2.8,3.3,4.6,2.7l0,0
			L79.9,569.2L79.9,569.2z"/>
		<path style="display:inline;fill:#FFFFFF;" d="M54.4,436.5c-11,71.1,186,121.7,199.9,126.8l7.8-21.7
			C248.6,536.4,116.1,491.9,54.4,436.5z"/>
		<path style="display:inline;fill:#FFFFFF;" d="M267.4,561.7l38.6,13.3c0.8,0.3,1.8,0,2.4-0.6c1.2-1.4,2.2-3,2.8-4.8l1.3-3.7
			l-41.6-14.3l-3,8.9C267.6,560.8,267.5,561.2,267.4,561.7z"/>
		<path style="display:inline;fill:#FFFFFF;" d="M319.8,562L319.8,562c-2-0.7-4.1,0.3-4.8,2.3l-0.8,2.2l-1.3,3.7
			c-0.8,2.3-2.1,4.3-3.9,5.8c-2.5,2.3-5.9,3.6-9.4,3.5c-4.7-0.1-9.6-0.8-14.4-2.5c-5.6-1.9-10.8-4.1-15.3-6.7
			c-3.3-1.9-5-5.6-4.4-9.3c0.1-0.4,0.2-0.9,0.3-1.3l3-8.9l1.4-3.9c0.7-1.9-0.4-4-2.3-4.7l-0.1,0c-1.9-0.7-4,0.4-4.7,2.3l-6.1,17.7
			l0,0c-5,16.1,4.3,31.6,20.4,37.1c16.4,5.6,34.9-4.9,40.5-21.3v0l3.9-11.4C322.7,564.7,321.7,562.6,319.8,562z"/>
		<path style="display:inline;fill:#FFFFFF;" d="M323.4,569.6L323.4,569.6l-3.5,10.1l0,0c1.8,0.6,3.8-0.6,4.6-2.7l0.9-2.5
			C326.1,572.4,325.2,570.2,323.4,569.6z"/>
		<path style="display:inline;fill:#FFFFFF;" d="M219.9,522.8c2.6,1,7.9,3.1,7.9,3.1c0,0,0.1,0,0.1,0.1c0,0,0,0,0,0
			c5.5,2.1,11.1,4.3,16.9,6.4c54.8-21.8,111.7-53.9,106.2-92.9c-36.5,31.8-97,59.6-143.8,78.3"/>
		<path style="display:inline;fill:#FFFFFF;" d="M161.6,534.9c-10.1,3.6-17.2,6-19.8,7l7.5,21.8c4.1-1.4,23.8-6.6,49.5-14.8
			C193.5,546.9,166,536.6,161.6,534.9z"/>
	</g>
	<g id="craft_1_" style="display:none;">
		<defs>
			
				<filter id="Adobe_OpacityMaskFilter_00000029011605891561132390000009725367205225927075_" filterUnits="userSpaceOnUse" x="23" y="326.3" width="125.9" height="149.8">
				<feColorMatrix  type="matrix" values="1 0 0 0 0  0 1 0 0 0  0 0 1 0 0  0 0 0 1 0"/>
			</filter>
		</defs>
		<mask maskUnits="userSpaceOnUse" x="23" y="326.3" width="125.9" height="149.8" id="mask-2_2_" style="display:inline;">
			<g style="filter:url(#Adobe_OpacityMaskFilter_00000029011605891561132390000009725367205225927075_);">
				<path id="path-1_2_" style="fill:#FFFFFF;" d="M23,515.4h652V326.3H23"/>
			</g>
		</mask>
		<path id="Fill-7" style="display:inline;mask:url(#mask-2_2_);fill:#FFFFFF;" d="M132.8,353.2c0.9,0.7,1.7,1.4,2.5,2.1l13.1-10.3
			l0.4-0.5c-2-2-4.2-4-6.5-5.7c-30.2-22.8-75.7-13.2-101.8,21.3c-26.1,34.5-22.7,81,7.4,103.7c24.6,18.6,59.5,15.6,85.7-4.9l0-0.1
			l-12.5-9.8c-19.4,12.5-43.4,13.4-60.8,0.2c-23.2-17.5-25.7-53.2-5.7-79.7C74.6,343,109.6,335.7,132.8,353.2"/>
		<path id="Fill-1" style="display:inline;fill:#FFFFFF;" d="M351.5,406.7h28.2l3.3-17.3h-28.2l4.8-25.3h-0.1L338.1,381l-1.6,8.5
			h-22.2l6.5-34c1.5-12.8,21.1-9,24-8.2l3.1-16.4c-35.2-13.5-45.4,24.6-45.4,24.6l-6.5,34h-0.1l-22,17.3h18.8L272,515.4h18.3
			L311,406.7h22.2l-8.1,42.6c-5.2,31,25.9,27.6,35.8,25.6l3.1-16.2c-23.7,5.3-20.6-9.4-20.6-9.4L351.5,406.7z"/>
		<path id="Fill-3" style="display:inline;fill:#FFFFFF;" d="M243.2,451.4c-19.1,19.6-31.3,6.7-31.3,6.7c-8.3-8,0.9-16.3,0.9-16.3
			c12.6-11.5,31.9,1.1,31.9,1.1L243.2,451.4z M247.4,427.8c0,0-26.2-13.5-44.6,1.5c0,0-10.8,7.2-10.8,21.5
			c0,14.3,13.1,22.1,13.1,22.1s19.8,10.4,35.3-6.2l-1.7,7.8H256l10.9-51.6c8.2-50.9-52.5-32.9-52.5-32.9l-3.3,18.3
			c44.7-19.5,37.2,14.5,37.2,14.5L247.4,427.8z"/>
		<path id="Fill-5" style="display:inline;fill:#FFFFFF;" d="M198.9,389.5c-14.1,0.1-27,8-27,8l1.6-7.7h-17l-15.5,84.7h17.3
			l10.5-55.7c7.7-15.7,26.9-10.9,26.9-10.9L198.9,389.5z"/>
	</g>
	<g id="message" style="display:none;">
		<rect x="24" y="398.8" style="display:inline;fill:#FFFFFF;" width="360" height="45"/>
		<rect x="23" y="486.3" style="display:inline;fill:#FFFFFF;" width="257" height="45"/>
		<rect x="23" y="311.3" style="display:inline;fill:#FFFFFF;" width="330.5" height="45"/>
	</g>
	<g id="svg" style="display:none;">
		<path id="G" style="display:inline;fill:#FFFFFF;" d="M305.5,497.8H357v51.5l0,0c0,28.5-23,51.6-51.4,51.6
			c-28.4,0-51.4-23.1-51.4-51.6l0,0v-72.8h-0.1c0-28.5,23.1-51.5,51.4-51.5C334,425,357,448,357,476.5h-30.2
			c0-11.8-9.5-21.4-21.3-21.4c-11.7,0-21.2,9.5-21.2,21.4v72.8l0,0c0,11.8,9.6,21.4,21.2,21.4c11.8,0,21.3-9.5,21.3-21.3v-0.1V528
			h-21.3L305.5,497.8L305.5,497.8z"/>
		<polygon id="V" style="display:inline;fill:#FFFFFF;" points="254.1,425 217.8,600.9 187.6,600.9 151.2,425 181.4,425 202.7,528 
			224,425 		"/>
		<path id="S" style="display:inline;fill:#FFFFFF;" d="M63.4,512.9c-9.3-9.3-15-22.2-15-36.4c0-28.5,23-51.5,51.4-51.5
			c28.4,0,51.4,23.1,51.4,51.5h-30.1c0-11.8-9.6-21.4-21.3-21.4c-11.7,0-21.3,9.5-21.3,21.4c0,5.9,2.4,11.2,6.2,15.1l0,0
			c3.9,3.9,9.3,6.2,15.1,6.2v0.1c14.2,0,27.1,5.8,36.3,15.1l0,0c9.3,9.3,15.1,22.2,15.1,36.4c0,28.5-23,51.6-51.4,51.6
			c-28.4,0-51.4-23.1-51.4-51.6h30.1c0,11.8,9.6,21.3,21.3,21.3c11.8,0,21.3-9.5,21.3-21.3c0-5.9-2.4-11.2-6.3-15l0,0
			c-3.8-3.9-9.2-6.3-15-6.3l0,0C85.6,528,72.7,522.2,63.4,512.9L63.4,512.9L63.4,512.9z"/>
		<path id="shape" style="display:inline;fill:#FFFFFF;" d="M373.5,411.7C373.5,411.7,373.5,411.7,373.5,411.7
			c0-17.3-14-31.3-31.2-31.3c-8.6,0-16.4,3.5-22.1,9.2h-63.9l45.1-45.2c8,0,16-3.1,22.1-9.1c12.2-12.2,12.2-32.1,0-44.3
			c-12.1-12.2-31.9-12.2-44.2,0c-6.1,6.1-9.1,14.1-9.1,22.1l-45.2,45.3v-64c5.6-5.7,9.2-13.5,9.2-22.2c0-17.3-14-31.2-31.3-31.2
			c-17.3,0-31.3,14-31.3,31.2c0,8.7,3.6,16.5,9.2,22.2v64L135.8,313c0-8-3.1-16-9.2-22.1c-12.2-12.2-32-12.2-44.2,0
			c-12.2,12.2-12.2,32,0,44.3c6.1,6.1,14.2,9.1,22.1,9.1l45.2,45.2H85.9c-5.7-5.7-13.6-9.2-22.1-9.2c-17.3,0-31.3,14-31.3,31.3
			c0,0,0,0,0,0H373.5z"/>
	</g>
	<g id="timestamp" style="display:none;">
		
			<circle id="clock_1_" style="display:inline;fill:none;stroke:#FFFFFF;stroke-width:40;stroke-miterlimit:10;" cx="203" cy="420.9" r="160"/>
		<polyline id="hands" style="display:inline;fill:none;stroke:#FFFFFF;stroke-width:40;stroke-miterlimit:10;" points="
			203.5,304.8 203.5,421.3 265.7,483.4 		"/>
	</g>
	<path id="themer" style="display:none;fill:#FFFFFF;" d="M356.4,281.3v-2.6c0-10-3.4-18.5-10.2-25.6c-6.7-7-14.9-10.5-24.5-10.5
		H57.7c-9.6,0-17.7,3.5-24.5,10.5c-6.7,7.1-10.1,15.6-10.1,25.6v14.6c0,10,3.4,18.5,10.1,25.5c6.8,7.1,15,10.6,24.5,10.6h264.1
		c9.6,0,17.7-3.5,24.5-10.6c6.8-7,10.2-15.5,10.2-25.5v-0.6h16v42.9l-183,12.5c-1.4,0.1-2.6,0.7-3.6,1.8c-1,1.1-1.5,2.4-1.5,3.9V397
		H154v28.4h8.6v166.1c0.2,6.1,3.2,9.2,9.1,9.4h36.2c5.8-0.2,8.9-3.4,9.1-9.4V425.4h8.6V397h-30.2v-37.8l183-12.5
		c1.4-0.1,2.6-0.7,3.6-1.8c1-1.1,1.5-2.4,1.5-3.9v-54c0-1.6-0.5-2.9-1.6-4c-1.1-1.1-2.4-1.7-3.9-1.7H356.4 M189.7,563.7
		c3.3,0,6.1,1.2,8.4,3.6c2.3,2.4,3.5,5.4,3.5,8.8s-1.2,6.3-3.5,8.7c-2.3,2.4-5.1,3.7-8.4,3.7s-6.1-1.2-8.5-3.7
		c-2.3-2.4-3.5-5.3-3.5-8.7c0-3.4,1.2-6.4,3.5-8.8C183.6,564.9,186.4,563.7,189.7,563.7z"/>
	<g id="protocool" style="display:none;">
		<path id="arrow2" style="display:inline;fill:#FFFFFF;" d="M45.9,587.3c-1.2-0.7-1.7-1.7-1.3-3l18.6-56.7c0.8-2.5,2.2-6.6,3-9.1
			l18.6-56.7c0.8-2.5,5.1-2.4,9.6,0.2l26.8,15.6c4.5,2.6,10.4,3.4,13.3,1.8l124.8-69.8c2.9-1.6,8.8-0.8,13.3,1.8l86,49.9
			c4.5,2.6,5.8,6,2.9,7.6l-124.8,69.8c-2.9,1.6-1.5,5,2.9,7.6l26.8,15.6c4.5,2.6,4.5,5,0.1,5.5l-99.7,9.6c-4.4,0.4-11.6,1.1-16,1.5
			l-99.7,9.6C49,588.3,47.1,588,45.9,587.3 M369,455.5l-86-49.9c-13.4-7.8-31.3-10.2-39.8-5.4l-119.6,66.9l-18.7-10.9
			c-7.6-4.4-16.7-7.1-24.4-7.2c-7.7-0.1-13.1,2.3-14.5,6.6l-18.6,56.7l-2.3,6.9l-0.7,2.2L25.7,578c-1.6,4.9,2.1,10.5,9.9,15.1
			c7.8,4.5,17.6,6.8,26.2,5.9l99.7-9.6l16-1.5l99.7-9.6c7.5-0.7,11.9-3.8,11.8-8.2c-0.1-4.4-4.6-9.6-12.2-14.1l-18.7-10.9
			l119.6-66.9C386.3,473.5,382.3,463.3,369,455.5"/>
		<path id="arrow1" style="display:inline;fill:#FFFFFF;" d="M345.6,243.5c-1.2-0.7-3-1-5.2-0.8l-105.8,10.2
			c-4.4,0.4-11.6,1.1-16,1.5l-105.8,10.2c-4.4,0.4-4.4,2.9,0.1,5.5l29.1,16.9c4.5,2.6,5.8,6,2.9,7.6L24.3,361.9
			c-2.9,1.6-1.5,5,2.9,7.6l91.4,53.1c4.5,2.6,10.4,3.4,13.3,1.8L252.3,357c2.9-1.6,8.8-0.8,13.3,1.8l29.1,16.9
			c4.5,2.6,8.8,2.7,9.6,0.2l19.8-60.1c0.8-2.5,2.2-6.6,3-9.1l19.8-60.1C347.3,245.2,346.7,244.1,345.6,243.5"/>
	</g>
	<g id="version" style="display:none;">
		<path style="display:inline;fill:#FFFFFF;" d="M108.8,530.6L22.7,309h60.2L139.5,472L196.2,309h57.9l-87.1,221.6H108.8z"/>
		<path style="display:inline;fill:#FFFFFF;" d="M289.9,506.5c0,15.8-11.1,26.6-26.6,26.6S237,522.4,237,506.5
			c0-15.5,10.8-26.3,26.3-26.3S289.9,491,289.9,506.5z"/>
		<path style="display:inline;fill:#FFFFFF;" d="M326.6,530.6V353.9h-40.8v-45.3H383v222H326.6z"/>
	</g>
	<path id="grabber" style="display:none;fill:#FFFFFF;" d="M161.5,281.2h-44.9V261h65v82.5h-20.2V281.2z M244.7,343.5v-62.3h44.9
		V261h-65v82.5H244.7z M309.7,363.7v-62.3h23.1v-20.1h-43.3v82.5H309.7z M96.5,518.8V539h20.1v-20.1H96.5z M353,321.5v-20.1h-20.2
		v20.1H353l0,152.7h-20.1v63.3H353v-63.3h20.1V321.5H353z M312.7,580.7H136.8V539h-20.2v61.9h0.2h216v-63.3h-20.1V580.7z
		 M224.6,240.9h-42.9V261h42.9V240.9z M36.1,377.7v72.4h20.1v-72.4H36.1z M76.4,484.4v34.4h20.2v-34.4H76.4z M56.2,450.1v34.4h20.1
		v-34.4H56.2z M96.5,409.9h20.1V281.2H96.5v76.4H56.2v20.1h40.3V409.9z"/>
	<path id="developer" style="display:none;fill:#FFFFFF;" d="M382.5,308.2c-0.4-3.9-5.2-5.6-8-2.8l-35.9,35.9
		c-7.1,7.1-18.7,7.1-25.8,0L282.4,311c-7.1-7.1-7.1-18.7,0-25.8l35.8-35.8c2.8-2.8,1.1-7.6-2.9-8.1c-22.4-2.4-45.7,5.1-62.5,22.3
		c-16.6,17-23.6,39.8-21,61.8c1.8,15.5-4.3,30.9-16.1,41.1L36.5,521.8c-18,18-18,47.4,0,65.4l0,0c18,18,47.4,18,65.4,0l154.6-179.4
		c10.2-11.8,25.6-18.1,41.1-16.1c22.5,2.9,46-4.3,63.2-21.6C377.7,353.2,384.9,330.3,382.5,308.2z M86.4,569.7
		c-8.9,8.9-23.4,8.9-32.3,0c-8.9-8.9-8.9-23.4,0-32.3c8.9-8.9,23.4-8.9,32.3,0C95.3,546.3,95.3,560.8,86.4,569.7z"/>
	<path id="youarel" style="display:none;fill:#FFFFFF;" d="M80,597c-14.3-4.9-23.6-10.6-33.7-20.8C31.1,560.8,23,540.8,23,518.5
		c0-16.2,3.1-28.7,10.9-43.9c5.2-10.1,11.8-17.4,51.7-57.2c48.8-48.8,54.5-53.2,77.5-60c11.8-3.5,35.5-3.5,47.2,0
		c19.3,5.8,37.2,18.7,40.7,29.3c7.2,21.9-18.9,38.8-36.3,23.6c-9.5-8.3-15.7-10.6-28.1-10.6c-19,0-22.2,2.3-68.6,48.6
		c-31.4,31.3-42,42.9-45.5,49.8c-14,27.7,3.5,57.8,33.5,57.6c16.1-0.1,24-5,51.1-31.5l23-22.4l8.2,3.8c10.6,4.9,29,7.5,39.3,5.6
		l7.8-1.5l-37.4,37c-40.2,39.7-48.6,45.9-70.1,51.4C113.7,601.9,92.9,601.4,80,597L80,597z M209.5,486.6
		c-23.7-2.3-49.9-17.5-54.6-31.8c-5.3-15.9,8.8-32.3,25-29.3c2.9,0.5,9.1,3.9,13.9,7.5c14.5,10.9,28.5,12.3,45.2,4.7
		c11.1-5,87.9-81.6,93.8-93.4c8.3-16.7,7.2-32.6-3.2-44.7c-8.5-9.9-17-13.8-29.8-13.8c-16.1,0.1-24,5-51.1,31.5l-23,22.4l-8.2-3.8
		c-10.6-4.9-29-7.5-39.2-5.6l-7.8,1.5l37.4-37c31.5-31.1,39.2-37.9,48.9-43c15.1-7.8,27.7-11,44-11c37.3,0,68.8,23.9,79.5,60.1
		c3.3,11.2,3.4,32.4,0.1,44.8c-1.4,5.3-5.1,14.8-8.4,21.1c-5.2,10.1-11.8,17.4-51.7,57.2c-47.1,47.1-52.3,51.3-72.9,58.7
		C238.2,486.1,221.6,487.8,209.5,486.6L209.5,486.6z"/>
	<g id="routify" style="display:none;">
		<path id="arrows" style="display:inline;fill:#FFFFFF;" d="M268.5,376.2L268.5,376.2c-11.4,11.4-25.1,17.1-41.2,17.1h-70.9
			c-4.9,0-9.1,1.7-12.6,5.2c-3.4,3.5-5.2,7.7-5.2,12.6c0,4.9,1.7,9.1,5.2,12.5l146.6,146.6V520l-91.3-91.3h28.1
			c25.9,0,47.9-9.2,66.2-27.5c0,0,0,0,0.1-0.1c18.3-18.3,27.4-40.3,27.5-66.2c0-25.9-9.2-48-27.5-66.3
			c-18.3-18.3-40.3-27.4-66.2-27.4H71.4c-4.9,0-9.1,1.7-12.6,5.2c-3.4,3.5-5.2,7.7-5.2,12.6v254.5L89.1,549V276.8h138.2
			c16.1,0,29.8,5.7,41.1,17c11.4,11.4,17.1,25.2,17.1,41.2C285.6,351.1,279.9,364.8,268.5,376.2z"/>
		<path id="R" style="display:inline;fill:#FFFFFF;" d="M75,600.9l9.4-3.8l-5.7-13.8h23l-48.1-48.1V599c0,0.6,0,1.3,0.1,1.9
			l15.1-15.1L75,600.9 M320.9,585.8l6.2,15.1l9.4-3.8l-5.7-13.8h23l-48.1-48.1V599c0,0.6,0,1.3,0.1,1.9L320.9,585.8z"/>
	</g>
	<polygon id="checkers" style="display:none;fill:#FFFFFF;" points="166.8,600.8 24,502.4 69.5,436.5 146.4,489.5 316.4,242.9 
		382.2,288.3 	"/>
	<path id="settings" style="display:none;fill:#FFFFFF;" d="M367.7,449.7l-13.5-14.5c0-0.1,0-0.3,0-0.4c0.3-3.2,0.5-6.5,0.6-9.7
		c0-0.9,0-1.9,0-2.9c0-2.5,0-4.9-0.1-7.3c0-1.1-0.1-2-0.2-3.1c-0.1-1.6-0.1-3.2-0.3-4.9l13.5-14.4c6.4-6.9,18.1-16,14.6-24.7
		L367.5,332c-3.6-8.7-18.3-6.9-27.7-7.2l-19.7-0.7c-1.5-1.8-3.1-3.5-4.6-5.2c-0.1-0.1-0.1-0.2-0.2-0.3c-0.5-0.6-1-1.2-1.6-1.8
		c-0.8-0.9-1.8-1.8-2.7-2.7c-1.2-1.3-2.5-2.5-3.8-3.8c-2.1-2-4.3-3.9-6.5-5.8c-0.1-0.1-0.2-0.2-0.3-0.2c-0.1-0.1-0.2-0.2-0.3-0.4
		l-0.6-19.8c-0.3-9.4,1.5-24.1-7.1-27.7l-35.9-14.9c-8.6-3.6-17.8,8.1-24.7,14.5l-14.5,13.5c-3.2-0.3-6.5-0.5-9.7-0.6
		c-0.9,0-1.8,0-2.8,0c-2.1,0-4.2-0.1-6.3,0c-2.7,0.1-5.4,0.3-8.1,0.5c-0.3,0-0.7,0-1,0c-0.2,0-0.3,0-0.5,0l-14.4-13.5
		c-6.9-6.4-16-18.1-24.7-14.6l-35.9,14.8c-8.7,3.6-6.8,18.3-7.2,27.7l-0.7,19.8c-0.2,0.2-0.4,0.4-0.6,0.6c-2.4,2-4.7,4-6.9,6.1
		c-0.8,0.8-1.6,1.6-2.4,2.5c-1.6,1.6-3.2,3.2-4.7,4.8c-0.8,0.9-1.5,1.7-2.3,2.6c-1,1.1-2.1,2.2-3,3.4l-19.8,0.6
		c-9.4,0.3-24.1-1.5-27.7,7.1l-14.9,35.9c-3.6,8.6,8.1,17.8,14.5,24.6l13.5,14.5c-0.2,2.2-0.3,4.5-0.4,6.7c0,0.2,0,0.4,0,0.6
		c-0.2,3.8-0.3,7.7-0.1,11.5c0.1,1.7,0.2,3.3,0.3,5c0.1,1.4,0.1,2.7,0.3,4.1c0,0.1,0,0.3,0,0.4l-13.5,14.4
		c-6.4,6.8-18.2,15.9-14.6,24.6l14.8,35.9c3.6,8.7,18.3,6.9,27.7,7.2l19.7,0.7c0.1,0.2,0.3,0.3,0.4,0.5c2,2.4,4.1,4.7,6.3,7.1
		c0.8,0.8,1.6,1.5,2.4,2.4c1.6,1.6,3.2,3.2,4.9,4.8c0.8,0.7,1.7,1.5,2.5,2.2c1.2,1,2.3,2.1,3.5,3l0.6,19.8
		c0.3,9.4-1.5,24.1,7.1,27.7l35.9,14.9c8.6,3.6,17.8-8.1,24.6-14.5l14.5-13.5c0.2,0,0.3,0,0.5,0c1.9,0.2,3.7,0.3,5.6,0.4
		c0.6,0,1.1,0.1,1.6,0.1c0.9,0,1.7,0.1,2.5,0.1c1,0,2,0,3,0c2.4,0.1,4.8,0,7.2-0.1c1,0,2.1-0.1,3.1-0.2c1.6-0.1,3.2-0.2,4.8-0.2
		l14.4,13.5c6.9,6.4,15.9,18.2,24.6,14.6l35.9-14.8c8.7-3.6,6.9-18.3,7.2-27.7l0.7-19.7c1.7-1.4,3.3-2.9,4.9-4.3
		c0.2-0.3,0.5-0.4,0.7-0.6c0.5-0.5,1.1-1,1.6-1.5c1-0.8,1.8-1.8,2.7-2.6c1.2-1.3,2.6-2.5,3.8-3.8c1.8-2,3.7-4,5.5-6.2
		c0.2-0.2,0.4-0.4,0.5-0.6c0.2-0.1,0.2-0.2,0.3-0.3l19.8-0.6c9.4-0.3,24.1,1.5,27.7-7.1l14.9-35.9
		C385.8,465.8,374.1,456.6,367.7,449.7z M282,420.9c0,43.6-35.4,79-79,79s-79-35.4-79-79s35.4-79,79-79S282,377.3,282,420.9z"/>
	<path id="agent" transform="matrix( 1, 0, 0, 1, 0,0) " style="display:none;fill:#FFFFFF;" d="M291.2,318.8
		c2.6,10.7,2.9,21.6,0.8,32.8c-2.8,7.6-2.2,16.9,1.7,27.9c-1.4,12-1.4,26.3,0,42.8c0.5,8.1,0.2,13.7-0.9,16.8
		c3.2,0.3,4.8-1.2,4.9-4.4c0.1-10.4,1.3-19,3.7-26c3.4-9.1,7.6-14.2,12.8-15.3c3.2-39.8,1.9-63.8-3.9-72
		c-4.4-30.7-17.5-50-39.5-57.8c-2.4-4.4-9-10.9-20-19.6c-26.7-21.1-53.3-23.6-79.9-7.6c-26.6,16-45.8,34.2-57.7,54.5
		c-16.6,23.8-24.3,45.1-23.2,63.7c1.1,18.6,2.8,33.2,5,43.8c1.9,0.3,3.6,1.5,5,3.5c5.3,0,6.7,6.6,4.1,19.9c-0.1,9.4,1.6,18.4,5,27
		c1.7,4.5,3.9,5.7,6.7,3.8c-4.3-10.2-5.8-21.3-4.6-33.3c2.1-15.9,1.4-31.8-2.1-47.8c7.2-7.7,9.4-24.8,6.7-51.1
		c5.7-20.7,19.1-36.5,39.9-47.4c4.2,1.8,6.7,4.8,7.5,9.1c2.8,0.7,15.1,1.4,36.9,2c21.8,0.7,34.7-0.4,38.7-3.3
		c0.3-6.7,2.6-10.3,7-10.8C268.8,281.5,283.9,297.7,291.2,318.8z M125.7,513.5c-0.9,8.6-1,15.4-0.4,20.5c0.3,3.1,1.8,10.4,4.4,22
		c3.4,12.5,9.9,22.9,19.6,31.1c9.6,8.2,17.4,17.7,23.1,28.6c8-6.6,13.7-11.8,16.9-15.5c5.4-6.1,9.6-14.7,12.5-25.7
		c-43-23.2-66.7-43.6-71.2-61.2v-9.1C128.2,504.7,126.5,507.8,125.7,513.5 M280.8,534c0.6-5.1,0.5-12-0.4-20.5
		c-0.9-5.7-2.5-8.8-5-9.3v9.1c-4.4,17.6-28.1,38-71.1,61.2c2.9,11,7,19.6,12.4,25.7c3.3,3.7,8.9,8.9,17,15.5
		c5.7-10.9,13.4-20.5,23.1-28.6c9.7-8.2,16.3-18.6,19.6-31.1C278.9,544.4,280.4,537.1,280.8,534z M285.8,388.8l-10.7-5.9l-51.6,7.9
		c-4,2.2-8.3,5.6-12.8,10.2c-0.3-0.2-0.6-0.4-1-0.6c-1.8-1-4.1-1.5-6.7-1.5c-2.6,0-4.9,0.5-6.7,1.5c-0.4,0.2-0.7,0.4-1,0.7
		c-4.5-4.6-8.8-8-12.8-10.2l-51.7-7.9l-10.6,5.9c1,9.5,3.4,18.5,7,26.9c12.3,13.3,29.4,20.3,51.4,21.2c6.5-4.1,11.9-8.8,16.2-14.1
		l1-7.8l0.9-7l0.6-4.8c1.7-1.1,3.6-1.7,5.8-1.7c2.1,0,4,0.6,5.6,1.7l0.6,4.9l0.8,7l1,7.7c4.3,5.3,9.7,10,16.1,14.1
		c22-0.9,39.2-7.9,51.4-21.2C282.4,407.3,284.7,398.3,285.8,388.8z"/>
	<g>
		<path style="fill:#FFFFFF;" d="M272.2,446.6c-10.1,0.3-19.8,4.5-26.8,11.7c-7.1,7.3-11,17-11,27.2c0,13.9,7.4,26.7,19.4,33.6
			c12,6.9,26.8,6.9,38.8,0c12-6.9,19.4-19.7,19.4-33.6c0-10.5-4.2-20.5-11.7-27.9S282.7,446.3,272.2,446.6z M272.5,459.6
			c7-0.2,13.7,2.5,18.7,7.3c5,4.9,7.8,11.6,7.8,18.6c0,6.9-2.7,13.4-7.6,18.3c-4.8,4.9-11.4,7.6-18.3,7.6c-6.9,0-13.4-2.7-18.3-7.6
			c-4.8-4.9-7.6-11.4-7.6-18.3c0-6.8,2.6-13.2,7.3-18.1C259.4,462.6,265.8,459.8,272.5,459.6L272.5,459.6z"/>
		<path style="fill:#FFFFFF;" d="M98.5,446.7c-10.1,0.3-19.7,4.5-26.8,11.7c-7,7.3-11,17-11,27.1c0,10.3,4.1,20.2,11.3,27.5
			c7.3,7.3,17.2,11.4,27.5,11.4s20.2-4.1,27.5-11.4c7.3-7.3,11.4-17.2,11.3-27.5c0-10.5-4.2-20.5-11.7-27.8
			C119.1,450.3,109,446.4,98.5,446.7L98.5,446.7z M98.9,459.6c7-0.2,13.8,2.5,18.8,7.3c5,4.9,7.8,11.6,7.8,18.6
			c0,6.9-2.7,13.4-7.6,18.3c-4.9,4.9-11.4,7.6-18.3,7.6s-13.4-2.7-18.3-7.6c-4.9-4.9-7.6-11.4-7.6-18.3c0-6.7,2.6-13.2,7.3-18.1
			C85.7,462.6,92.1,459.8,98.9,459.6L98.9,459.6z"/>
		<path style="fill:#FFFFFF;" d="M87.3,343.3c-2.6,0-5.1,0.8-7.3,2.3c-2.1,1.5-3.8,3.6-4.7,6l-18.7,49.8c-0.8,2.2-2.2,4.1-4.1,5.6
			c-1.8,1.5-4,2.4-6.4,2.7l-13.1,1.7c-3.1,0.4-6,1.9-8,4.3c-2.1,2.4-3.2,5.4-3.2,8.5v35.4h32.3l5.8-11.6c2.1-4.3,5.4-7.9,9.5-10.4
			c4.1-2.5,8.8-3.9,13.6-3.9h32.7h0c4.8,0,9.5,1.3,13.6,3.9c4.1,2.5,7.4,6.1,9.5,10.4l5.8,11.6h83.1l5.8-11.6
			c2.1-4.3,5.4-7.9,9.5-10.4c4.1-2.5,8.8-3.9,13.6-3.9h32.7c4.8,0,9.5,1.3,13.6,3.9c4.1,2.5,7.4,6.1,9.5,10.4l5.8,11.6h39.7
			c3.4,0,6.7-1.4,9.1-3.8s3.8-5.7,3.8-9.1v-25.9c0-3.4-1.4-6.7-3.8-9.1s-5.7-3.8-9.1-3.8h-46.7l-107.8,43h0
			c-6.7,2.7-14.2,2.4-20.7-0.7c-6.5-3.1-11.4-8.8-13.6-15.6l-25.7-82.3c-0.8-2.6-2.5-4.9-4.7-6.6c-2.2-1.6-4.9-2.5-7.7-2.5H87.5
			L87.3,343.3L87.3,343.3z M100.7,356.2h0.3h11.5c5.1,0,10.1,2,13.7,5.7c3.6,3.6,5.7,8.6,5.7,13.7v12.9c0,5.1-2,10.1-5.7,13.7
			c-3.6,3.6-8.6,5.7-13.7,5.7H68.1l14.7-39.1c1.4-3.7,3.8-6.8,7-9.1C93,357.5,96.8,356.3,100.7,356.2L100.7,356.2z"/>
		<path style="fill:#FFFFFF;" d="M292.6,485.5c0-5.2-2-10.1-5.7-13.7c-3.6-3.6-8.6-5.7-13.7-5.7c-5.2,0-10.1,2-13.7,5.7
			c-3.6,3.6-5.7,8.6-5.7,13.7c0,5.1,2,10.1,5.7,13.7c3.6,3.6,8.6,5.7,13.7,5.7c5.1,0,10.1-2,13.7-5.7
			C290.6,495.6,292.6,490.7,292.6,485.5z"/>
		<path style="fill:#FFFFFF;" d="M118.9,485.5c0-5.2-2-10.1-5.7-13.7c-3.6-3.6-8.6-5.7-13.7-5.7c-5.1,0-10.1,2-13.7,5.7
			c-3.6,3.6-5.7,8.6-5.7,13.7c0,5.1,2,10.1,5.7,13.7c3.6,3.6,8.6,5.7,13.7,5.7c5.2,0,10.1-2,13.7-5.7
			C116.9,495.6,119,490.7,118.9,485.5z"/>
		<path style="fill:#FFFFFF;" d="M86.6,317.4v12.9h63.6l31.4,100.4c1.1,3.4,3.5,6.3,6.8,7.8c3.2,1.5,7,1.7,10.3,0.3l177.1-70.6
			c2.4-1,4.5-2.6,5.9-4.8c1.5-2.1,2.2-4.7,2.2-7.3v-13H173.3l-8.1-25.9L86.6,317.4z M189.5,369.1H203l11.2,35.8l-12,4.8L189.5,369.1
			z M216.6,369.1h13.5l8.2,26.2l-12,4.8L216.6,369.1z M243.7,369.1h13.5l5.2,16.6l-12,4.8L243.7,369.1z M270.8,369.1h13.6l2.2,7
			l-12,4.8L270.8,369.1z"/>
	</g>
</g>
</svg>
